G04 #@! TF.GenerationSoftware,KiCad,Pcbnew,8.0.4*
G04 #@! TF.CreationDate,2024-11-12T14:01:25-05:00*
G04 #@! TF.ProjectId,gw-glitchbus-proto2,67772d67-6c69-4746-9368-6275732d7072,PRODUCTION*
G04 #@! TF.SameCoordinates,Original*
G04 #@! TF.FileFunction,Legend,Top*
G04 #@! TF.FilePolarity,Positive*
%FSLAX46Y46*%
G04 Gerber Fmt 4.6, Leading zero omitted, Abs format (unit mm)*
G04 Created by KiCad (PCBNEW 8.0.4) date 2024-11-12 14:01:25*
%MOMM*%
%LPD*%
G01*
G04 APERTURE LIST*
%ADD10C,0.254000*%
G04 APERTURE END LIST*
D10*
X175955681Y-140985914D02*
X175653300Y-140985914D01*
X175774253Y-140683533D02*
X175653300Y-140985914D01*
X175653300Y-140985914D02*
X175774253Y-141288295D01*
X175411396Y-140804485D02*
X175653300Y-140985914D01*
X175653300Y-140985914D02*
X175411396Y-141167343D01*
X175350919Y-142195438D02*
X175290443Y-142376866D01*
X175290443Y-142376866D02*
X175229967Y-142437343D01*
X175229967Y-142437343D02*
X175109015Y-142497819D01*
X175109015Y-142497819D02*
X174927586Y-142497819D01*
X174927586Y-142497819D02*
X174806634Y-142437343D01*
X174806634Y-142437343D02*
X174746158Y-142376866D01*
X174746158Y-142376866D02*
X174685681Y-142255914D01*
X174685681Y-142255914D02*
X174685681Y-141772104D01*
X174685681Y-141772104D02*
X175955681Y-141772104D01*
X175955681Y-141772104D02*
X175955681Y-142195438D01*
X175955681Y-142195438D02*
X175895205Y-142316390D01*
X175895205Y-142316390D02*
X175834729Y-142376866D01*
X175834729Y-142376866D02*
X175713777Y-142437343D01*
X175713777Y-142437343D02*
X175592824Y-142437343D01*
X175592824Y-142437343D02*
X175471872Y-142376866D01*
X175471872Y-142376866D02*
X175411396Y-142316390D01*
X175411396Y-142316390D02*
X175350919Y-142195438D01*
X175350919Y-142195438D02*
X175350919Y-141772104D01*
X174746158Y-142981628D02*
X174685681Y-143163057D01*
X174685681Y-143163057D02*
X174685681Y-143465438D01*
X174685681Y-143465438D02*
X174746158Y-143586390D01*
X174746158Y-143586390D02*
X174806634Y-143646866D01*
X174806634Y-143646866D02*
X174927586Y-143707343D01*
X174927586Y-143707343D02*
X175048538Y-143707343D01*
X175048538Y-143707343D02*
X175169491Y-143646866D01*
X175169491Y-143646866D02*
X175229967Y-143586390D01*
X175229967Y-143586390D02*
X175290443Y-143465438D01*
X175290443Y-143465438D02*
X175350919Y-143223533D01*
X175350919Y-143223533D02*
X175411396Y-143102581D01*
X175411396Y-143102581D02*
X175471872Y-143042104D01*
X175471872Y-143042104D02*
X175592824Y-142981628D01*
X175592824Y-142981628D02*
X175713777Y-142981628D01*
X175713777Y-142981628D02*
X175834729Y-143042104D01*
X175834729Y-143042104D02*
X175895205Y-143102581D01*
X175895205Y-143102581D02*
X175955681Y-143223533D01*
X175955681Y-143223533D02*
X175955681Y-143525914D01*
X175955681Y-143525914D02*
X175895205Y-143707343D01*
X175350919Y-144251628D02*
X175350919Y-144674962D01*
X174685681Y-144856390D02*
X174685681Y-144251628D01*
X174685681Y-144251628D02*
X175955681Y-144251628D01*
X175955681Y-144251628D02*
X175955681Y-144856390D01*
X174685681Y-146005438D02*
X174685681Y-145400676D01*
X174685681Y-145400676D02*
X175955681Y-145400676D01*
X176046191Y-147047651D02*
X176046191Y-148075746D01*
X176046191Y-148075746D02*
X175985715Y-148196699D01*
X175985715Y-148196699D02*
X175925239Y-148257175D01*
X175925239Y-148257175D02*
X175804286Y-148317651D01*
X175804286Y-148317651D02*
X175622858Y-148317651D01*
X175622858Y-148317651D02*
X175501905Y-148257175D01*
X176046191Y-147833842D02*
X175925239Y-147894318D01*
X175925239Y-147894318D02*
X175683334Y-147894318D01*
X175683334Y-147894318D02*
X175562382Y-147833842D01*
X175562382Y-147833842D02*
X175501905Y-147773365D01*
X175501905Y-147773365D02*
X175441429Y-147652413D01*
X175441429Y-147652413D02*
X175441429Y-147289556D01*
X175441429Y-147289556D02*
X175501905Y-147168603D01*
X175501905Y-147168603D02*
X175562382Y-147108127D01*
X175562382Y-147108127D02*
X175683334Y-147047651D01*
X175683334Y-147047651D02*
X175925239Y-147047651D01*
X175925239Y-147047651D02*
X176046191Y-147108127D01*
X176832382Y-147894318D02*
X176711430Y-147833842D01*
X176711430Y-147833842D02*
X176650953Y-147712889D01*
X176650953Y-147712889D02*
X176650953Y-146624318D01*
X177316191Y-147894318D02*
X177316191Y-147047651D01*
X177316191Y-146624318D02*
X177255715Y-146684794D01*
X177255715Y-146684794D02*
X177316191Y-146745270D01*
X177316191Y-146745270D02*
X177376668Y-146684794D01*
X177376668Y-146684794D02*
X177316191Y-146624318D01*
X177316191Y-146624318D02*
X177316191Y-146745270D01*
X177739525Y-147047651D02*
X178223334Y-147047651D01*
X177920953Y-146624318D02*
X177920953Y-147712889D01*
X177920953Y-147712889D02*
X177981430Y-147833842D01*
X177981430Y-147833842D02*
X178102382Y-147894318D01*
X178102382Y-147894318D02*
X178223334Y-147894318D01*
X179190953Y-147833842D02*
X179070001Y-147894318D01*
X179070001Y-147894318D02*
X178828096Y-147894318D01*
X178828096Y-147894318D02*
X178707144Y-147833842D01*
X178707144Y-147833842D02*
X178646667Y-147773365D01*
X178646667Y-147773365D02*
X178586191Y-147652413D01*
X178586191Y-147652413D02*
X178586191Y-147289556D01*
X178586191Y-147289556D02*
X178646667Y-147168603D01*
X178646667Y-147168603D02*
X178707144Y-147108127D01*
X178707144Y-147108127D02*
X178828096Y-147047651D01*
X178828096Y-147047651D02*
X179070001Y-147047651D01*
X179070001Y-147047651D02*
X179190953Y-147108127D01*
X179735238Y-147894318D02*
X179735238Y-146624318D01*
X180279524Y-147894318D02*
X180279524Y-147229080D01*
X180279524Y-147229080D02*
X180219048Y-147108127D01*
X180219048Y-147108127D02*
X180098096Y-147047651D01*
X180098096Y-147047651D02*
X179916667Y-147047651D01*
X179916667Y-147047651D02*
X179795715Y-147108127D01*
X179795715Y-147108127D02*
X179735238Y-147168603D01*
X180763334Y-147047651D02*
X181005239Y-147894318D01*
X181005239Y-147894318D02*
X181247144Y-147289556D01*
X181247144Y-147289556D02*
X181489048Y-147894318D01*
X181489048Y-147894318D02*
X181730953Y-147047651D01*
X182214762Y-147894318D02*
X182214762Y-147047651D01*
X182214762Y-147289556D02*
X182275239Y-147168603D01*
X182275239Y-147168603D02*
X182335715Y-147108127D01*
X182335715Y-147108127D02*
X182456667Y-147047651D01*
X182456667Y-147047651D02*
X182577620Y-147047651D01*
X183000952Y-147894318D02*
X183000952Y-146624318D01*
X183121905Y-147410508D02*
X183484762Y-147894318D01*
X183484762Y-147047651D02*
X183000952Y-147531461D01*
X183968571Y-147833842D02*
X184089524Y-147894318D01*
X184089524Y-147894318D02*
X184331428Y-147894318D01*
X184331428Y-147894318D02*
X184452381Y-147833842D01*
X184452381Y-147833842D02*
X184512857Y-147712889D01*
X184512857Y-147712889D02*
X184512857Y-147652413D01*
X184512857Y-147652413D02*
X184452381Y-147531461D01*
X184452381Y-147531461D02*
X184331428Y-147470984D01*
X184331428Y-147470984D02*
X184150000Y-147470984D01*
X184150000Y-147470984D02*
X184029047Y-147410508D01*
X184029047Y-147410508D02*
X183968571Y-147289556D01*
X183968571Y-147289556D02*
X183968571Y-147229080D01*
X183968571Y-147229080D02*
X184029047Y-147108127D01*
X184029047Y-147108127D02*
X184150000Y-147047651D01*
X184150000Y-147047651D02*
X184331428Y-147047651D01*
X184331428Y-147047651D02*
X184452381Y-147108127D01*
X185057142Y-147773365D02*
X185117619Y-147833842D01*
X185117619Y-147833842D02*
X185057142Y-147894318D01*
X185057142Y-147894318D02*
X184996666Y-147833842D01*
X184996666Y-147833842D02*
X185057142Y-147773365D01*
X185057142Y-147773365D02*
X185057142Y-147894318D01*
X186206190Y-147833842D02*
X186085238Y-147894318D01*
X186085238Y-147894318D02*
X185843333Y-147894318D01*
X185843333Y-147894318D02*
X185722381Y-147833842D01*
X185722381Y-147833842D02*
X185661904Y-147773365D01*
X185661904Y-147773365D02*
X185601428Y-147652413D01*
X185601428Y-147652413D02*
X185601428Y-147289556D01*
X185601428Y-147289556D02*
X185661904Y-147168603D01*
X185661904Y-147168603D02*
X185722381Y-147108127D01*
X185722381Y-147108127D02*
X185843333Y-147047651D01*
X185843333Y-147047651D02*
X186085238Y-147047651D01*
X186085238Y-147047651D02*
X186206190Y-147108127D01*
X186931904Y-147894318D02*
X186810952Y-147833842D01*
X186810952Y-147833842D02*
X186750475Y-147773365D01*
X186750475Y-147773365D02*
X186689999Y-147652413D01*
X186689999Y-147652413D02*
X186689999Y-147289556D01*
X186689999Y-147289556D02*
X186750475Y-147168603D01*
X186750475Y-147168603D02*
X186810952Y-147108127D01*
X186810952Y-147108127D02*
X186931904Y-147047651D01*
X186931904Y-147047651D02*
X187113333Y-147047651D01*
X187113333Y-147047651D02*
X187234285Y-147108127D01*
X187234285Y-147108127D02*
X187294761Y-147168603D01*
X187294761Y-147168603D02*
X187355237Y-147289556D01*
X187355237Y-147289556D02*
X187355237Y-147652413D01*
X187355237Y-147652413D02*
X187294761Y-147773365D01*
X187294761Y-147773365D02*
X187234285Y-147833842D01*
X187234285Y-147833842D02*
X187113333Y-147894318D01*
X187113333Y-147894318D02*
X186931904Y-147894318D01*
X187899523Y-147894318D02*
X187899523Y-147047651D01*
X187899523Y-147168603D02*
X187960000Y-147108127D01*
X187960000Y-147108127D02*
X188080952Y-147047651D01*
X188080952Y-147047651D02*
X188262381Y-147047651D01*
X188262381Y-147047651D02*
X188383333Y-147108127D01*
X188383333Y-147108127D02*
X188443809Y-147229080D01*
X188443809Y-147229080D02*
X188443809Y-147894318D01*
X188443809Y-147229080D02*
X188504285Y-147108127D01*
X188504285Y-147108127D02*
X188625238Y-147047651D01*
X188625238Y-147047651D02*
X188806666Y-147047651D01*
X188806666Y-147047651D02*
X188927619Y-147108127D01*
X188927619Y-147108127D02*
X188988095Y-147229080D01*
X188988095Y-147229080D02*
X188988095Y-147894318D01*
X139065000Y-146684794D02*
X138944047Y-146624318D01*
X138944047Y-146624318D02*
X138762619Y-146624318D01*
X138762619Y-146624318D02*
X138581190Y-146684794D01*
X138581190Y-146684794D02*
X138460238Y-146805746D01*
X138460238Y-146805746D02*
X138399761Y-146926699D01*
X138399761Y-146926699D02*
X138339285Y-147168603D01*
X138339285Y-147168603D02*
X138339285Y-147350032D01*
X138339285Y-147350032D02*
X138399761Y-147591937D01*
X138399761Y-147591937D02*
X138460238Y-147712889D01*
X138460238Y-147712889D02*
X138581190Y-147833842D01*
X138581190Y-147833842D02*
X138762619Y-147894318D01*
X138762619Y-147894318D02*
X138883571Y-147894318D01*
X138883571Y-147894318D02*
X139065000Y-147833842D01*
X139065000Y-147833842D02*
X139125476Y-147773365D01*
X139125476Y-147773365D02*
X139125476Y-147350032D01*
X139125476Y-147350032D02*
X138883571Y-147350032D01*
X139548809Y-146624318D02*
X139851190Y-147894318D01*
X139851190Y-147894318D02*
X140093095Y-146987175D01*
X140093095Y-146987175D02*
X140335000Y-147894318D01*
X140335000Y-147894318D02*
X140637381Y-146624318D01*
X141121190Y-147410508D02*
X142088810Y-147410508D01*
X143358810Y-146684794D02*
X143237857Y-146624318D01*
X143237857Y-146624318D02*
X143056429Y-146624318D01*
X143056429Y-146624318D02*
X142875000Y-146684794D01*
X142875000Y-146684794D02*
X142754048Y-146805746D01*
X142754048Y-146805746D02*
X142693571Y-146926699D01*
X142693571Y-146926699D02*
X142633095Y-147168603D01*
X142633095Y-147168603D02*
X142633095Y-147350032D01*
X142633095Y-147350032D02*
X142693571Y-147591937D01*
X142693571Y-147591937D02*
X142754048Y-147712889D01*
X142754048Y-147712889D02*
X142875000Y-147833842D01*
X142875000Y-147833842D02*
X143056429Y-147894318D01*
X143056429Y-147894318D02*
X143177381Y-147894318D01*
X143177381Y-147894318D02*
X143358810Y-147833842D01*
X143358810Y-147833842D02*
X143419286Y-147773365D01*
X143419286Y-147773365D02*
X143419286Y-147350032D01*
X143419286Y-147350032D02*
X143177381Y-147350032D01*
X144568333Y-147894318D02*
X143963571Y-147894318D01*
X143963571Y-147894318D02*
X143963571Y-146624318D01*
X144991666Y-147894318D02*
X144991666Y-146624318D01*
X145415000Y-146624318D02*
X146140714Y-146624318D01*
X145777857Y-147894318D02*
X145777857Y-146624318D01*
X147289762Y-147773365D02*
X147229286Y-147833842D01*
X147229286Y-147833842D02*
X147047857Y-147894318D01*
X147047857Y-147894318D02*
X146926905Y-147894318D01*
X146926905Y-147894318D02*
X146745476Y-147833842D01*
X146745476Y-147833842D02*
X146624524Y-147712889D01*
X146624524Y-147712889D02*
X146564047Y-147591937D01*
X146564047Y-147591937D02*
X146503571Y-147350032D01*
X146503571Y-147350032D02*
X146503571Y-147168603D01*
X146503571Y-147168603D02*
X146564047Y-146926699D01*
X146564047Y-146926699D02*
X146624524Y-146805746D01*
X146624524Y-146805746D02*
X146745476Y-146684794D01*
X146745476Y-146684794D02*
X146926905Y-146624318D01*
X146926905Y-146624318D02*
X147047857Y-146624318D01*
X147047857Y-146624318D02*
X147229286Y-146684794D01*
X147229286Y-146684794D02*
X147289762Y-146745270D01*
X147834047Y-147894318D02*
X147834047Y-146624318D01*
X147834047Y-147229080D02*
X148559762Y-147229080D01*
X148559762Y-147894318D02*
X148559762Y-146624318D01*
X149587857Y-147229080D02*
X149769285Y-147289556D01*
X149769285Y-147289556D02*
X149829762Y-147350032D01*
X149829762Y-147350032D02*
X149890238Y-147470984D01*
X149890238Y-147470984D02*
X149890238Y-147652413D01*
X149890238Y-147652413D02*
X149829762Y-147773365D01*
X149829762Y-147773365D02*
X149769285Y-147833842D01*
X149769285Y-147833842D02*
X149648333Y-147894318D01*
X149648333Y-147894318D02*
X149164523Y-147894318D01*
X149164523Y-147894318D02*
X149164523Y-146624318D01*
X149164523Y-146624318D02*
X149587857Y-146624318D01*
X149587857Y-146624318D02*
X149708809Y-146684794D01*
X149708809Y-146684794D02*
X149769285Y-146745270D01*
X149769285Y-146745270D02*
X149829762Y-146866222D01*
X149829762Y-146866222D02*
X149829762Y-146987175D01*
X149829762Y-146987175D02*
X149769285Y-147108127D01*
X149769285Y-147108127D02*
X149708809Y-147168603D01*
X149708809Y-147168603D02*
X149587857Y-147229080D01*
X149587857Y-147229080D02*
X149164523Y-147229080D01*
X150434523Y-146624318D02*
X150434523Y-147652413D01*
X150434523Y-147652413D02*
X150495000Y-147773365D01*
X150495000Y-147773365D02*
X150555476Y-147833842D01*
X150555476Y-147833842D02*
X150676428Y-147894318D01*
X150676428Y-147894318D02*
X150918333Y-147894318D01*
X150918333Y-147894318D02*
X151039285Y-147833842D01*
X151039285Y-147833842D02*
X151099762Y-147773365D01*
X151099762Y-147773365D02*
X151160238Y-147652413D01*
X151160238Y-147652413D02*
X151160238Y-146624318D01*
X151704523Y-147833842D02*
X151885952Y-147894318D01*
X151885952Y-147894318D02*
X152188333Y-147894318D01*
X152188333Y-147894318D02*
X152309285Y-147833842D01*
X152309285Y-147833842D02*
X152369761Y-147773365D01*
X152369761Y-147773365D02*
X152430238Y-147652413D01*
X152430238Y-147652413D02*
X152430238Y-147531461D01*
X152430238Y-147531461D02*
X152369761Y-147410508D01*
X152369761Y-147410508D02*
X152309285Y-147350032D01*
X152309285Y-147350032D02*
X152188333Y-147289556D01*
X152188333Y-147289556D02*
X151946428Y-147229080D01*
X151946428Y-147229080D02*
X151825476Y-147168603D01*
X151825476Y-147168603D02*
X151764999Y-147108127D01*
X151764999Y-147108127D02*
X151704523Y-146987175D01*
X151704523Y-146987175D02*
X151704523Y-146866222D01*
X151704523Y-146866222D02*
X151764999Y-146745270D01*
X151764999Y-146745270D02*
X151825476Y-146684794D01*
X151825476Y-146684794D02*
X151946428Y-146624318D01*
X151946428Y-146624318D02*
X152248809Y-146624318D01*
X152248809Y-146624318D02*
X152430238Y-146684794D01*
X152974523Y-147410508D02*
X153942143Y-147410508D01*
X154546904Y-147894318D02*
X154546904Y-146624318D01*
X154546904Y-146624318D02*
X155030714Y-146624318D01*
X155030714Y-146624318D02*
X155151666Y-146684794D01*
X155151666Y-146684794D02*
X155212143Y-146745270D01*
X155212143Y-146745270D02*
X155272619Y-146866222D01*
X155272619Y-146866222D02*
X155272619Y-147047651D01*
X155272619Y-147047651D02*
X155212143Y-147168603D01*
X155212143Y-147168603D02*
X155151666Y-147229080D01*
X155151666Y-147229080D02*
X155030714Y-147289556D01*
X155030714Y-147289556D02*
X154546904Y-147289556D01*
X156542619Y-147894318D02*
X156119285Y-147289556D01*
X155816904Y-147894318D02*
X155816904Y-146624318D01*
X155816904Y-146624318D02*
X156300714Y-146624318D01*
X156300714Y-146624318D02*
X156421666Y-146684794D01*
X156421666Y-146684794D02*
X156482143Y-146745270D01*
X156482143Y-146745270D02*
X156542619Y-146866222D01*
X156542619Y-146866222D02*
X156542619Y-147047651D01*
X156542619Y-147047651D02*
X156482143Y-147168603D01*
X156482143Y-147168603D02*
X156421666Y-147229080D01*
X156421666Y-147229080D02*
X156300714Y-147289556D01*
X156300714Y-147289556D02*
X155816904Y-147289556D01*
X157328809Y-146624318D02*
X157570714Y-146624318D01*
X157570714Y-146624318D02*
X157691666Y-146684794D01*
X157691666Y-146684794D02*
X157812619Y-146805746D01*
X157812619Y-146805746D02*
X157873095Y-147047651D01*
X157873095Y-147047651D02*
X157873095Y-147470984D01*
X157873095Y-147470984D02*
X157812619Y-147712889D01*
X157812619Y-147712889D02*
X157691666Y-147833842D01*
X157691666Y-147833842D02*
X157570714Y-147894318D01*
X157570714Y-147894318D02*
X157328809Y-147894318D01*
X157328809Y-147894318D02*
X157207857Y-147833842D01*
X157207857Y-147833842D02*
X157086904Y-147712889D01*
X157086904Y-147712889D02*
X157026428Y-147470984D01*
X157026428Y-147470984D02*
X157026428Y-147047651D01*
X157026428Y-147047651D02*
X157086904Y-146805746D01*
X157086904Y-146805746D02*
X157207857Y-146684794D01*
X157207857Y-146684794D02*
X157328809Y-146624318D01*
X158235952Y-146624318D02*
X158961666Y-146624318D01*
X158598809Y-147894318D02*
X158598809Y-146624318D01*
X159626904Y-146624318D02*
X159868809Y-146624318D01*
X159868809Y-146624318D02*
X159989761Y-146684794D01*
X159989761Y-146684794D02*
X160110714Y-146805746D01*
X160110714Y-146805746D02*
X160171190Y-147047651D01*
X160171190Y-147047651D02*
X160171190Y-147470984D01*
X160171190Y-147470984D02*
X160110714Y-147712889D01*
X160110714Y-147712889D02*
X159989761Y-147833842D01*
X159989761Y-147833842D02*
X159868809Y-147894318D01*
X159868809Y-147894318D02*
X159626904Y-147894318D01*
X159626904Y-147894318D02*
X159505952Y-147833842D01*
X159505952Y-147833842D02*
X159384999Y-147712889D01*
X159384999Y-147712889D02*
X159324523Y-147470984D01*
X159324523Y-147470984D02*
X159324523Y-147047651D01*
X159324523Y-147047651D02*
X159384999Y-146805746D01*
X159384999Y-146805746D02*
X159505952Y-146684794D01*
X159505952Y-146684794D02*
X159626904Y-146624318D01*
X160654999Y-146745270D02*
X160715475Y-146684794D01*
X160715475Y-146684794D02*
X160836428Y-146624318D01*
X160836428Y-146624318D02*
X161138809Y-146624318D01*
X161138809Y-146624318D02*
X161259761Y-146684794D01*
X161259761Y-146684794D02*
X161320237Y-146745270D01*
X161320237Y-146745270D02*
X161380714Y-146866222D01*
X161380714Y-146866222D02*
X161380714Y-146987175D01*
X161380714Y-146987175D02*
X161320237Y-147168603D01*
X161320237Y-147168603D02*
X160594523Y-147894318D01*
X160594523Y-147894318D02*
X161380714Y-147894318D01*
X185510919Y-130794085D02*
X185450443Y-130975513D01*
X185450443Y-130975513D02*
X185389967Y-131035990D01*
X185389967Y-131035990D02*
X185269015Y-131096466D01*
X185269015Y-131096466D02*
X185087586Y-131096466D01*
X185087586Y-131096466D02*
X184966634Y-131035990D01*
X184966634Y-131035990D02*
X184906158Y-130975513D01*
X184906158Y-130975513D02*
X184845681Y-130854561D01*
X184845681Y-130854561D02*
X184845681Y-130370751D01*
X184845681Y-130370751D02*
X186115681Y-130370751D01*
X186115681Y-130370751D02*
X186115681Y-130794085D01*
X186115681Y-130794085D02*
X186055205Y-130915037D01*
X186055205Y-130915037D02*
X185994729Y-130975513D01*
X185994729Y-130975513D02*
X185873777Y-131035990D01*
X185873777Y-131035990D02*
X185752824Y-131035990D01*
X185752824Y-131035990D02*
X185631872Y-130975513D01*
X185631872Y-130975513D02*
X185571396Y-130915037D01*
X185571396Y-130915037D02*
X185510919Y-130794085D01*
X185510919Y-130794085D02*
X185510919Y-130370751D01*
X184845681Y-131640751D02*
X186115681Y-131640751D01*
X186115681Y-131640751D02*
X186115681Y-131943132D01*
X186115681Y-131943132D02*
X186055205Y-132124561D01*
X186055205Y-132124561D02*
X185934253Y-132245513D01*
X185934253Y-132245513D02*
X185813300Y-132305990D01*
X185813300Y-132305990D02*
X185571396Y-132366466D01*
X185571396Y-132366466D02*
X185389967Y-132366466D01*
X185389967Y-132366466D02*
X185148062Y-132305990D01*
X185148062Y-132305990D02*
X185027110Y-132245513D01*
X185027110Y-132245513D02*
X184906158Y-132124561D01*
X184906158Y-132124561D02*
X184845681Y-131943132D01*
X184845681Y-131943132D02*
X184845681Y-131640751D01*
X186115681Y-132789799D02*
X186115681Y-133636466D01*
X186115681Y-133636466D02*
X184845681Y-133092180D01*
X182970919Y-130794085D02*
X182910443Y-130975513D01*
X182910443Y-130975513D02*
X182849967Y-131035990D01*
X182849967Y-131035990D02*
X182729015Y-131096466D01*
X182729015Y-131096466D02*
X182547586Y-131096466D01*
X182547586Y-131096466D02*
X182426634Y-131035990D01*
X182426634Y-131035990D02*
X182366158Y-130975513D01*
X182366158Y-130975513D02*
X182305681Y-130854561D01*
X182305681Y-130854561D02*
X182305681Y-130370751D01*
X182305681Y-130370751D02*
X183575681Y-130370751D01*
X183575681Y-130370751D02*
X183575681Y-130794085D01*
X183575681Y-130794085D02*
X183515205Y-130915037D01*
X183515205Y-130915037D02*
X183454729Y-130975513D01*
X183454729Y-130975513D02*
X183333777Y-131035990D01*
X183333777Y-131035990D02*
X183212824Y-131035990D01*
X183212824Y-131035990D02*
X183091872Y-130975513D01*
X183091872Y-130975513D02*
X183031396Y-130915037D01*
X183031396Y-130915037D02*
X182970919Y-130794085D01*
X182970919Y-130794085D02*
X182970919Y-130370751D01*
X182305681Y-131640751D02*
X183575681Y-131640751D01*
X183575681Y-131640751D02*
X183575681Y-131943132D01*
X183575681Y-131943132D02*
X183515205Y-132124561D01*
X183515205Y-132124561D02*
X183394253Y-132245513D01*
X183394253Y-132245513D02*
X183273300Y-132305990D01*
X183273300Y-132305990D02*
X183031396Y-132366466D01*
X183031396Y-132366466D02*
X182849967Y-132366466D01*
X182849967Y-132366466D02*
X182608062Y-132305990D01*
X182608062Y-132305990D02*
X182487110Y-132245513D01*
X182487110Y-132245513D02*
X182366158Y-132124561D01*
X182366158Y-132124561D02*
X182305681Y-131943132D01*
X182305681Y-131943132D02*
X182305681Y-131640751D01*
X183575681Y-133515513D02*
X183575681Y-132910751D01*
X183575681Y-132910751D02*
X182970919Y-132850275D01*
X182970919Y-132850275D02*
X183031396Y-132910751D01*
X183031396Y-132910751D02*
X183091872Y-133031704D01*
X183091872Y-133031704D02*
X183091872Y-133334085D01*
X183091872Y-133334085D02*
X183031396Y-133455037D01*
X183031396Y-133455037D02*
X182970919Y-133515513D01*
X182970919Y-133515513D02*
X182849967Y-133575990D01*
X182849967Y-133575990D02*
X182547586Y-133575990D01*
X182547586Y-133575990D02*
X182426634Y-133515513D01*
X182426634Y-133515513D02*
X182366158Y-133455037D01*
X182366158Y-133455037D02*
X182305681Y-133334085D01*
X182305681Y-133334085D02*
X182305681Y-133031704D01*
X182305681Y-133031704D02*
X182366158Y-132910751D01*
X182366158Y-132910751D02*
X182426634Y-132850275D01*
X180430919Y-130794085D02*
X180370443Y-130975513D01*
X180370443Y-130975513D02*
X180309967Y-131035990D01*
X180309967Y-131035990D02*
X180189015Y-131096466D01*
X180189015Y-131096466D02*
X180007586Y-131096466D01*
X180007586Y-131096466D02*
X179886634Y-131035990D01*
X179886634Y-131035990D02*
X179826158Y-130975513D01*
X179826158Y-130975513D02*
X179765681Y-130854561D01*
X179765681Y-130854561D02*
X179765681Y-130370751D01*
X179765681Y-130370751D02*
X181035681Y-130370751D01*
X181035681Y-130370751D02*
X181035681Y-130794085D01*
X181035681Y-130794085D02*
X180975205Y-130915037D01*
X180975205Y-130915037D02*
X180914729Y-130975513D01*
X180914729Y-130975513D02*
X180793777Y-131035990D01*
X180793777Y-131035990D02*
X180672824Y-131035990D01*
X180672824Y-131035990D02*
X180551872Y-130975513D01*
X180551872Y-130975513D02*
X180491396Y-130915037D01*
X180491396Y-130915037D02*
X180430919Y-130794085D01*
X180430919Y-130794085D02*
X180430919Y-130370751D01*
X179765681Y-131640751D02*
X181035681Y-131640751D01*
X181035681Y-131640751D02*
X181035681Y-131943132D01*
X181035681Y-131943132D02*
X180975205Y-132124561D01*
X180975205Y-132124561D02*
X180854253Y-132245513D01*
X180854253Y-132245513D02*
X180733300Y-132305990D01*
X180733300Y-132305990D02*
X180491396Y-132366466D01*
X180491396Y-132366466D02*
X180309967Y-132366466D01*
X180309967Y-132366466D02*
X180068062Y-132305990D01*
X180068062Y-132305990D02*
X179947110Y-132245513D01*
X179947110Y-132245513D02*
X179826158Y-132124561D01*
X179826158Y-132124561D02*
X179765681Y-131943132D01*
X179765681Y-131943132D02*
X179765681Y-131640751D01*
X181035681Y-132789799D02*
X181035681Y-133575990D01*
X181035681Y-133575990D02*
X180551872Y-133152656D01*
X180551872Y-133152656D02*
X180551872Y-133334085D01*
X180551872Y-133334085D02*
X180491396Y-133455037D01*
X180491396Y-133455037D02*
X180430919Y-133515513D01*
X180430919Y-133515513D02*
X180309967Y-133575990D01*
X180309967Y-133575990D02*
X180007586Y-133575990D01*
X180007586Y-133575990D02*
X179886634Y-133515513D01*
X179886634Y-133515513D02*
X179826158Y-133455037D01*
X179826158Y-133455037D02*
X179765681Y-133334085D01*
X179765681Y-133334085D02*
X179765681Y-132971228D01*
X179765681Y-132971228D02*
X179826158Y-132850275D01*
X179826158Y-132850275D02*
X179886634Y-132789799D01*
X177890919Y-130794085D02*
X177830443Y-130975513D01*
X177830443Y-130975513D02*
X177769967Y-131035990D01*
X177769967Y-131035990D02*
X177649015Y-131096466D01*
X177649015Y-131096466D02*
X177467586Y-131096466D01*
X177467586Y-131096466D02*
X177346634Y-131035990D01*
X177346634Y-131035990D02*
X177286158Y-130975513D01*
X177286158Y-130975513D02*
X177225681Y-130854561D01*
X177225681Y-130854561D02*
X177225681Y-130370751D01*
X177225681Y-130370751D02*
X178495681Y-130370751D01*
X178495681Y-130370751D02*
X178495681Y-130794085D01*
X178495681Y-130794085D02*
X178435205Y-130915037D01*
X178435205Y-130915037D02*
X178374729Y-130975513D01*
X178374729Y-130975513D02*
X178253777Y-131035990D01*
X178253777Y-131035990D02*
X178132824Y-131035990D01*
X178132824Y-131035990D02*
X178011872Y-130975513D01*
X178011872Y-130975513D02*
X177951396Y-130915037D01*
X177951396Y-130915037D02*
X177890919Y-130794085D01*
X177890919Y-130794085D02*
X177890919Y-130370751D01*
X177225681Y-131640751D02*
X178495681Y-131640751D01*
X178495681Y-131640751D02*
X178495681Y-131943132D01*
X178495681Y-131943132D02*
X178435205Y-132124561D01*
X178435205Y-132124561D02*
X178314253Y-132245513D01*
X178314253Y-132245513D02*
X178193300Y-132305990D01*
X178193300Y-132305990D02*
X177951396Y-132366466D01*
X177951396Y-132366466D02*
X177769967Y-132366466D01*
X177769967Y-132366466D02*
X177528062Y-132305990D01*
X177528062Y-132305990D02*
X177407110Y-132245513D01*
X177407110Y-132245513D02*
X177286158Y-132124561D01*
X177286158Y-132124561D02*
X177225681Y-131943132D01*
X177225681Y-131943132D02*
X177225681Y-131640751D01*
X177225681Y-133575990D02*
X177225681Y-132850275D01*
X177225681Y-133213132D02*
X178495681Y-133213132D01*
X178495681Y-133213132D02*
X178314253Y-133092180D01*
X178314253Y-133092180D02*
X178193300Y-132971228D01*
X178193300Y-132971228D02*
X178132824Y-132850275D01*
X175350919Y-127407419D02*
X175290443Y-127588847D01*
X175290443Y-127588847D02*
X175229967Y-127649324D01*
X175229967Y-127649324D02*
X175109015Y-127709800D01*
X175109015Y-127709800D02*
X174927586Y-127709800D01*
X174927586Y-127709800D02*
X174806634Y-127649324D01*
X174806634Y-127649324D02*
X174746158Y-127588847D01*
X174746158Y-127588847D02*
X174685681Y-127467895D01*
X174685681Y-127467895D02*
X174685681Y-126984085D01*
X174685681Y-126984085D02*
X175955681Y-126984085D01*
X175955681Y-126984085D02*
X175955681Y-127407419D01*
X175955681Y-127407419D02*
X175895205Y-127528371D01*
X175895205Y-127528371D02*
X175834729Y-127588847D01*
X175834729Y-127588847D02*
X175713777Y-127649324D01*
X175713777Y-127649324D02*
X175592824Y-127649324D01*
X175592824Y-127649324D02*
X175471872Y-127588847D01*
X175471872Y-127588847D02*
X175411396Y-127528371D01*
X175411396Y-127528371D02*
X175350919Y-127407419D01*
X175350919Y-127407419D02*
X175350919Y-126984085D01*
X174685681Y-128979800D02*
X175290443Y-128556466D01*
X174685681Y-128254085D02*
X175955681Y-128254085D01*
X175955681Y-128254085D02*
X175955681Y-128737895D01*
X175955681Y-128737895D02*
X175895205Y-128858847D01*
X175895205Y-128858847D02*
X175834729Y-128919324D01*
X175834729Y-128919324D02*
X175713777Y-128979800D01*
X175713777Y-128979800D02*
X175532348Y-128979800D01*
X175532348Y-128979800D02*
X175411396Y-128919324D01*
X175411396Y-128919324D02*
X175350919Y-128858847D01*
X175350919Y-128858847D02*
X175290443Y-128737895D01*
X175290443Y-128737895D02*
X175290443Y-128254085D01*
X175350919Y-129524085D02*
X175350919Y-129947419D01*
X174685681Y-130128847D02*
X174685681Y-129524085D01*
X174685681Y-129524085D02*
X175955681Y-129524085D01*
X175955681Y-129524085D02*
X175955681Y-130128847D01*
X175048538Y-130612657D02*
X175048538Y-131217419D01*
X174685681Y-130491705D02*
X175955681Y-130915038D01*
X175955681Y-130915038D02*
X174685681Y-131338372D01*
X174685681Y-131761704D02*
X175955681Y-131761704D01*
X175955681Y-131761704D02*
X175955681Y-132064085D01*
X175955681Y-132064085D02*
X175895205Y-132245514D01*
X175895205Y-132245514D02*
X175774253Y-132366466D01*
X175774253Y-132366466D02*
X175653300Y-132426943D01*
X175653300Y-132426943D02*
X175411396Y-132487419D01*
X175411396Y-132487419D02*
X175229967Y-132487419D01*
X175229967Y-132487419D02*
X174988062Y-132426943D01*
X174988062Y-132426943D02*
X174867110Y-132366466D01*
X174867110Y-132366466D02*
X174746158Y-132245514D01*
X174746158Y-132245514D02*
X174685681Y-132064085D01*
X174685681Y-132064085D02*
X174685681Y-131761704D01*
X175290443Y-133273609D02*
X174685681Y-133273609D01*
X175955681Y-132850276D02*
X175290443Y-133273609D01*
X175290443Y-133273609D02*
X175955681Y-133696943D01*
X173415681Y-129161228D02*
X173113300Y-129161228D01*
X173234253Y-128858847D02*
X173113300Y-129161228D01*
X173113300Y-129161228D02*
X173234253Y-129463609D01*
X172871396Y-128979799D02*
X173113300Y-129161228D01*
X173113300Y-129161228D02*
X172871396Y-129342657D01*
X172810919Y-130370752D02*
X172750443Y-130552180D01*
X172750443Y-130552180D02*
X172689967Y-130612657D01*
X172689967Y-130612657D02*
X172569015Y-130673133D01*
X172569015Y-130673133D02*
X172387586Y-130673133D01*
X172387586Y-130673133D02*
X172266634Y-130612657D01*
X172266634Y-130612657D02*
X172206158Y-130552180D01*
X172206158Y-130552180D02*
X172145681Y-130431228D01*
X172145681Y-130431228D02*
X172145681Y-129947418D01*
X172145681Y-129947418D02*
X173415681Y-129947418D01*
X173415681Y-129947418D02*
X173415681Y-130370752D01*
X173415681Y-130370752D02*
X173355205Y-130491704D01*
X173355205Y-130491704D02*
X173294729Y-130552180D01*
X173294729Y-130552180D02*
X173173777Y-130612657D01*
X173173777Y-130612657D02*
X173052824Y-130612657D01*
X173052824Y-130612657D02*
X172931872Y-130552180D01*
X172931872Y-130552180D02*
X172871396Y-130491704D01*
X172871396Y-130491704D02*
X172810919Y-130370752D01*
X172810919Y-130370752D02*
X172810919Y-129947418D01*
X172145681Y-131217418D02*
X173415681Y-131217418D01*
X172145681Y-131822180D02*
X173415681Y-131822180D01*
X173415681Y-131822180D02*
X172145681Y-132547895D01*
X172145681Y-132547895D02*
X173415681Y-132547895D01*
X173415681Y-132971228D02*
X173415681Y-133696942D01*
X172145681Y-133334085D02*
X173415681Y-133334085D01*
X165190919Y-127105038D02*
X165130443Y-127286466D01*
X165130443Y-127286466D02*
X165069967Y-127346943D01*
X165069967Y-127346943D02*
X164949015Y-127407419D01*
X164949015Y-127407419D02*
X164767586Y-127407419D01*
X164767586Y-127407419D02*
X164646634Y-127346943D01*
X164646634Y-127346943D02*
X164586158Y-127286466D01*
X164586158Y-127286466D02*
X164525681Y-127165514D01*
X164525681Y-127165514D02*
X164525681Y-126681704D01*
X164525681Y-126681704D02*
X165795681Y-126681704D01*
X165795681Y-126681704D02*
X165795681Y-127105038D01*
X165795681Y-127105038D02*
X165735205Y-127225990D01*
X165735205Y-127225990D02*
X165674729Y-127286466D01*
X165674729Y-127286466D02*
X165553777Y-127346943D01*
X165553777Y-127346943D02*
X165432824Y-127346943D01*
X165432824Y-127346943D02*
X165311872Y-127286466D01*
X165311872Y-127286466D02*
X165251396Y-127225990D01*
X165251396Y-127225990D02*
X165190919Y-127105038D01*
X165190919Y-127105038D02*
X165190919Y-126681704D01*
X164646634Y-128677419D02*
X164586158Y-128616943D01*
X164586158Y-128616943D02*
X164525681Y-128435514D01*
X164525681Y-128435514D02*
X164525681Y-128314562D01*
X164525681Y-128314562D02*
X164586158Y-128133133D01*
X164586158Y-128133133D02*
X164707110Y-128012181D01*
X164707110Y-128012181D02*
X164828062Y-127951704D01*
X164828062Y-127951704D02*
X165069967Y-127891228D01*
X165069967Y-127891228D02*
X165251396Y-127891228D01*
X165251396Y-127891228D02*
X165493300Y-127951704D01*
X165493300Y-127951704D02*
X165614253Y-128012181D01*
X165614253Y-128012181D02*
X165735205Y-128133133D01*
X165735205Y-128133133D02*
X165795681Y-128314562D01*
X165795681Y-128314562D02*
X165795681Y-128435514D01*
X165795681Y-128435514D02*
X165735205Y-128616943D01*
X165735205Y-128616943D02*
X165674729Y-128677419D01*
X164525681Y-129826466D02*
X164525681Y-129221704D01*
X164525681Y-129221704D02*
X165795681Y-129221704D01*
X165795681Y-130491704D02*
X165795681Y-130733609D01*
X165795681Y-130733609D02*
X165735205Y-130854561D01*
X165735205Y-130854561D02*
X165614253Y-130975514D01*
X165614253Y-130975514D02*
X165372348Y-131035990D01*
X165372348Y-131035990D02*
X164949015Y-131035990D01*
X164949015Y-131035990D02*
X164707110Y-130975514D01*
X164707110Y-130975514D02*
X164586158Y-130854561D01*
X164586158Y-130854561D02*
X164525681Y-130733609D01*
X164525681Y-130733609D02*
X164525681Y-130491704D01*
X164525681Y-130491704D02*
X164586158Y-130370752D01*
X164586158Y-130370752D02*
X164707110Y-130249799D01*
X164707110Y-130249799D02*
X164949015Y-130189323D01*
X164949015Y-130189323D02*
X165372348Y-130189323D01*
X165372348Y-130189323D02*
X165614253Y-130249799D01*
X165614253Y-130249799D02*
X165735205Y-130370752D01*
X165735205Y-130370752D02*
X165795681Y-130491704D01*
X164646634Y-132305990D02*
X164586158Y-132245514D01*
X164586158Y-132245514D02*
X164525681Y-132064085D01*
X164525681Y-132064085D02*
X164525681Y-131943133D01*
X164525681Y-131943133D02*
X164586158Y-131761704D01*
X164586158Y-131761704D02*
X164707110Y-131640752D01*
X164707110Y-131640752D02*
X164828062Y-131580275D01*
X164828062Y-131580275D02*
X165069967Y-131519799D01*
X165069967Y-131519799D02*
X165251396Y-131519799D01*
X165251396Y-131519799D02*
X165493300Y-131580275D01*
X165493300Y-131580275D02*
X165614253Y-131640752D01*
X165614253Y-131640752D02*
X165735205Y-131761704D01*
X165735205Y-131761704D02*
X165795681Y-131943133D01*
X165795681Y-131943133D02*
X165795681Y-132064085D01*
X165795681Y-132064085D02*
X165735205Y-132245514D01*
X165735205Y-132245514D02*
X165674729Y-132305990D01*
X164525681Y-132850275D02*
X165795681Y-132850275D01*
X164525681Y-133575990D02*
X165251396Y-133031704D01*
X165795681Y-133575990D02*
X165069967Y-132850275D01*
X160110919Y-129765990D02*
X160050443Y-129947418D01*
X160050443Y-129947418D02*
X159989967Y-130007895D01*
X159989967Y-130007895D02*
X159869015Y-130068371D01*
X159869015Y-130068371D02*
X159687586Y-130068371D01*
X159687586Y-130068371D02*
X159566634Y-130007895D01*
X159566634Y-130007895D02*
X159506158Y-129947418D01*
X159506158Y-129947418D02*
X159445681Y-129826466D01*
X159445681Y-129826466D02*
X159445681Y-129342656D01*
X159445681Y-129342656D02*
X160715681Y-129342656D01*
X160715681Y-129342656D02*
X160715681Y-129765990D01*
X160715681Y-129765990D02*
X160655205Y-129886942D01*
X160655205Y-129886942D02*
X160594729Y-129947418D01*
X160594729Y-129947418D02*
X160473777Y-130007895D01*
X160473777Y-130007895D02*
X160352824Y-130007895D01*
X160352824Y-130007895D02*
X160231872Y-129947418D01*
X160231872Y-129947418D02*
X160171396Y-129886942D01*
X160171396Y-129886942D02*
X160110919Y-129765990D01*
X160110919Y-129765990D02*
X160110919Y-129342656D01*
X159808538Y-130552180D02*
X159808538Y-131156942D01*
X159445681Y-130431228D02*
X160715681Y-130854561D01*
X160715681Y-130854561D02*
X159445681Y-131277895D01*
X159445681Y-132366466D02*
X159445681Y-131640751D01*
X159445681Y-132003608D02*
X160715681Y-132003608D01*
X160715681Y-132003608D02*
X160534253Y-131882656D01*
X160534253Y-131882656D02*
X160413300Y-131761704D01*
X160413300Y-131761704D02*
X160352824Y-131640751D01*
X160715681Y-133515513D02*
X160715681Y-132910751D01*
X160715681Y-132910751D02*
X160110919Y-132850275D01*
X160110919Y-132850275D02*
X160171396Y-132910751D01*
X160171396Y-132910751D02*
X160231872Y-133031704D01*
X160231872Y-133031704D02*
X160231872Y-133334085D01*
X160231872Y-133334085D02*
X160171396Y-133455037D01*
X160171396Y-133455037D02*
X160110919Y-133515513D01*
X160110919Y-133515513D02*
X159989967Y-133575990D01*
X159989967Y-133575990D02*
X159687586Y-133575990D01*
X159687586Y-133575990D02*
X159566634Y-133515513D01*
X159566634Y-133515513D02*
X159506158Y-133455037D01*
X159506158Y-133455037D02*
X159445681Y-133334085D01*
X159445681Y-133334085D02*
X159445681Y-133031704D01*
X159445681Y-133031704D02*
X159506158Y-132910751D01*
X159506158Y-132910751D02*
X159566634Y-132850275D01*
X157570919Y-129765990D02*
X157510443Y-129947418D01*
X157510443Y-129947418D02*
X157449967Y-130007895D01*
X157449967Y-130007895D02*
X157329015Y-130068371D01*
X157329015Y-130068371D02*
X157147586Y-130068371D01*
X157147586Y-130068371D02*
X157026634Y-130007895D01*
X157026634Y-130007895D02*
X156966158Y-129947418D01*
X156966158Y-129947418D02*
X156905681Y-129826466D01*
X156905681Y-129826466D02*
X156905681Y-129342656D01*
X156905681Y-129342656D02*
X158175681Y-129342656D01*
X158175681Y-129342656D02*
X158175681Y-129765990D01*
X158175681Y-129765990D02*
X158115205Y-129886942D01*
X158115205Y-129886942D02*
X158054729Y-129947418D01*
X158054729Y-129947418D02*
X157933777Y-130007895D01*
X157933777Y-130007895D02*
X157812824Y-130007895D01*
X157812824Y-130007895D02*
X157691872Y-129947418D01*
X157691872Y-129947418D02*
X157631396Y-129886942D01*
X157631396Y-129886942D02*
X157570919Y-129765990D01*
X157570919Y-129765990D02*
X157570919Y-129342656D01*
X157268538Y-130552180D02*
X157268538Y-131156942D01*
X156905681Y-130431228D02*
X158175681Y-130854561D01*
X158175681Y-130854561D02*
X156905681Y-131277895D01*
X156905681Y-132366466D02*
X156905681Y-131640751D01*
X156905681Y-132003608D02*
X158175681Y-132003608D01*
X158175681Y-132003608D02*
X157994253Y-131882656D01*
X157994253Y-131882656D02*
X157873300Y-131761704D01*
X157873300Y-131761704D02*
X157812824Y-131640751D01*
X158175681Y-132789799D02*
X158175681Y-133575990D01*
X158175681Y-133575990D02*
X157691872Y-133152656D01*
X157691872Y-133152656D02*
X157691872Y-133334085D01*
X157691872Y-133334085D02*
X157631396Y-133455037D01*
X157631396Y-133455037D02*
X157570919Y-133515513D01*
X157570919Y-133515513D02*
X157449967Y-133575990D01*
X157449967Y-133575990D02*
X157147586Y-133575990D01*
X157147586Y-133575990D02*
X157026634Y-133515513D01*
X157026634Y-133515513D02*
X156966158Y-133455037D01*
X156966158Y-133455037D02*
X156905681Y-133334085D01*
X156905681Y-133334085D02*
X156905681Y-132971228D01*
X156905681Y-132971228D02*
X156966158Y-132850275D01*
X156966158Y-132850275D02*
X157026634Y-132789799D01*
X155030919Y-129765990D02*
X154970443Y-129947418D01*
X154970443Y-129947418D02*
X154909967Y-130007895D01*
X154909967Y-130007895D02*
X154789015Y-130068371D01*
X154789015Y-130068371D02*
X154607586Y-130068371D01*
X154607586Y-130068371D02*
X154486634Y-130007895D01*
X154486634Y-130007895D02*
X154426158Y-129947418D01*
X154426158Y-129947418D02*
X154365681Y-129826466D01*
X154365681Y-129826466D02*
X154365681Y-129342656D01*
X154365681Y-129342656D02*
X155635681Y-129342656D01*
X155635681Y-129342656D02*
X155635681Y-129765990D01*
X155635681Y-129765990D02*
X155575205Y-129886942D01*
X155575205Y-129886942D02*
X155514729Y-129947418D01*
X155514729Y-129947418D02*
X155393777Y-130007895D01*
X155393777Y-130007895D02*
X155272824Y-130007895D01*
X155272824Y-130007895D02*
X155151872Y-129947418D01*
X155151872Y-129947418D02*
X155091396Y-129886942D01*
X155091396Y-129886942D02*
X155030919Y-129765990D01*
X155030919Y-129765990D02*
X155030919Y-129342656D01*
X154728538Y-130552180D02*
X154728538Y-131156942D01*
X154365681Y-130431228D02*
X155635681Y-130854561D01*
X155635681Y-130854561D02*
X154365681Y-131277895D01*
X154365681Y-132366466D02*
X154365681Y-131640751D01*
X154365681Y-132003608D02*
X155635681Y-132003608D01*
X155635681Y-132003608D02*
X155454253Y-131882656D01*
X155454253Y-131882656D02*
X155333300Y-131761704D01*
X155333300Y-131761704D02*
X155272824Y-131640751D01*
X154365681Y-133575990D02*
X154365681Y-132850275D01*
X154365681Y-133213132D02*
X155635681Y-133213132D01*
X155635681Y-133213132D02*
X155454253Y-133092180D01*
X155454253Y-133092180D02*
X155333300Y-132971228D01*
X155333300Y-132971228D02*
X155272824Y-132850275D01*
X152490919Y-130975514D02*
X152430443Y-131156942D01*
X152430443Y-131156942D02*
X152369967Y-131217419D01*
X152369967Y-131217419D02*
X152249015Y-131277895D01*
X152249015Y-131277895D02*
X152067586Y-131277895D01*
X152067586Y-131277895D02*
X151946634Y-131217419D01*
X151946634Y-131217419D02*
X151886158Y-131156942D01*
X151886158Y-131156942D02*
X151825681Y-131035990D01*
X151825681Y-131035990D02*
X151825681Y-130552180D01*
X151825681Y-130552180D02*
X153095681Y-130552180D01*
X153095681Y-130552180D02*
X153095681Y-130975514D01*
X153095681Y-130975514D02*
X153035205Y-131096466D01*
X153035205Y-131096466D02*
X152974729Y-131156942D01*
X152974729Y-131156942D02*
X152853777Y-131217419D01*
X152853777Y-131217419D02*
X152732824Y-131217419D01*
X152732824Y-131217419D02*
X152611872Y-131156942D01*
X152611872Y-131156942D02*
X152551396Y-131096466D01*
X152551396Y-131096466D02*
X152490919Y-130975514D01*
X152490919Y-130975514D02*
X152490919Y-130552180D01*
X152188538Y-131761704D02*
X152188538Y-132366466D01*
X151825681Y-131640752D02*
X153095681Y-132064085D01*
X153095681Y-132064085D02*
X151825681Y-132487419D01*
X151825681Y-132971228D02*
X151825681Y-133213132D01*
X151825681Y-133213132D02*
X151886158Y-133334085D01*
X151886158Y-133334085D02*
X151946634Y-133394561D01*
X151946634Y-133394561D02*
X152128062Y-133515513D01*
X152128062Y-133515513D02*
X152369967Y-133575990D01*
X152369967Y-133575990D02*
X152853777Y-133575990D01*
X152853777Y-133575990D02*
X152974729Y-133515513D01*
X152974729Y-133515513D02*
X153035205Y-133455037D01*
X153035205Y-133455037D02*
X153095681Y-133334085D01*
X153095681Y-133334085D02*
X153095681Y-133092180D01*
X153095681Y-133092180D02*
X153035205Y-132971228D01*
X153035205Y-132971228D02*
X152974729Y-132910751D01*
X152974729Y-132910751D02*
X152853777Y-132850275D01*
X152853777Y-132850275D02*
X152551396Y-132850275D01*
X152551396Y-132850275D02*
X152430443Y-132910751D01*
X152430443Y-132910751D02*
X152369967Y-132971228D01*
X152369967Y-132971228D02*
X152309491Y-133092180D01*
X152309491Y-133092180D02*
X152309491Y-133334085D01*
X152309491Y-133334085D02*
X152369967Y-133455037D01*
X152369967Y-133455037D02*
X152430443Y-133515513D01*
X152430443Y-133515513D02*
X152551396Y-133575990D01*
X149950919Y-130975514D02*
X149890443Y-131156942D01*
X149890443Y-131156942D02*
X149829967Y-131217419D01*
X149829967Y-131217419D02*
X149709015Y-131277895D01*
X149709015Y-131277895D02*
X149527586Y-131277895D01*
X149527586Y-131277895D02*
X149406634Y-131217419D01*
X149406634Y-131217419D02*
X149346158Y-131156942D01*
X149346158Y-131156942D02*
X149285681Y-131035990D01*
X149285681Y-131035990D02*
X149285681Y-130552180D01*
X149285681Y-130552180D02*
X150555681Y-130552180D01*
X150555681Y-130552180D02*
X150555681Y-130975514D01*
X150555681Y-130975514D02*
X150495205Y-131096466D01*
X150495205Y-131096466D02*
X150434729Y-131156942D01*
X150434729Y-131156942D02*
X150313777Y-131217419D01*
X150313777Y-131217419D02*
X150192824Y-131217419D01*
X150192824Y-131217419D02*
X150071872Y-131156942D01*
X150071872Y-131156942D02*
X150011396Y-131096466D01*
X150011396Y-131096466D02*
X149950919Y-130975514D01*
X149950919Y-130975514D02*
X149950919Y-130552180D01*
X149648538Y-131761704D02*
X149648538Y-132366466D01*
X149285681Y-131640752D02*
X150555681Y-132064085D01*
X150555681Y-132064085D02*
X149285681Y-132487419D01*
X150555681Y-132789799D02*
X150555681Y-133636466D01*
X150555681Y-133636466D02*
X149285681Y-133092180D01*
X147410919Y-130975514D02*
X147350443Y-131156942D01*
X147350443Y-131156942D02*
X147289967Y-131217419D01*
X147289967Y-131217419D02*
X147169015Y-131277895D01*
X147169015Y-131277895D02*
X146987586Y-131277895D01*
X146987586Y-131277895D02*
X146866634Y-131217419D01*
X146866634Y-131217419D02*
X146806158Y-131156942D01*
X146806158Y-131156942D02*
X146745681Y-131035990D01*
X146745681Y-131035990D02*
X146745681Y-130552180D01*
X146745681Y-130552180D02*
X148015681Y-130552180D01*
X148015681Y-130552180D02*
X148015681Y-130975514D01*
X148015681Y-130975514D02*
X147955205Y-131096466D01*
X147955205Y-131096466D02*
X147894729Y-131156942D01*
X147894729Y-131156942D02*
X147773777Y-131217419D01*
X147773777Y-131217419D02*
X147652824Y-131217419D01*
X147652824Y-131217419D02*
X147531872Y-131156942D01*
X147531872Y-131156942D02*
X147471396Y-131096466D01*
X147471396Y-131096466D02*
X147410919Y-130975514D01*
X147410919Y-130975514D02*
X147410919Y-130552180D01*
X147108538Y-131761704D02*
X147108538Y-132366466D01*
X146745681Y-131640752D02*
X148015681Y-132064085D01*
X148015681Y-132064085D02*
X146745681Y-132487419D01*
X148015681Y-133515513D02*
X148015681Y-132910751D01*
X148015681Y-132910751D02*
X147410919Y-132850275D01*
X147410919Y-132850275D02*
X147471396Y-132910751D01*
X147471396Y-132910751D02*
X147531872Y-133031704D01*
X147531872Y-133031704D02*
X147531872Y-133334085D01*
X147531872Y-133334085D02*
X147471396Y-133455037D01*
X147471396Y-133455037D02*
X147410919Y-133515513D01*
X147410919Y-133515513D02*
X147289967Y-133575990D01*
X147289967Y-133575990D02*
X146987586Y-133575990D01*
X146987586Y-133575990D02*
X146866634Y-133515513D01*
X146866634Y-133515513D02*
X146806158Y-133455037D01*
X146806158Y-133455037D02*
X146745681Y-133334085D01*
X146745681Y-133334085D02*
X146745681Y-133031704D01*
X146745681Y-133031704D02*
X146806158Y-132910751D01*
X146806158Y-132910751D02*
X146866634Y-132850275D01*
X144870919Y-130975514D02*
X144810443Y-131156942D01*
X144810443Y-131156942D02*
X144749967Y-131217419D01*
X144749967Y-131217419D02*
X144629015Y-131277895D01*
X144629015Y-131277895D02*
X144447586Y-131277895D01*
X144447586Y-131277895D02*
X144326634Y-131217419D01*
X144326634Y-131217419D02*
X144266158Y-131156942D01*
X144266158Y-131156942D02*
X144205681Y-131035990D01*
X144205681Y-131035990D02*
X144205681Y-130552180D01*
X144205681Y-130552180D02*
X145475681Y-130552180D01*
X145475681Y-130552180D02*
X145475681Y-130975514D01*
X145475681Y-130975514D02*
X145415205Y-131096466D01*
X145415205Y-131096466D02*
X145354729Y-131156942D01*
X145354729Y-131156942D02*
X145233777Y-131217419D01*
X145233777Y-131217419D02*
X145112824Y-131217419D01*
X145112824Y-131217419D02*
X144991872Y-131156942D01*
X144991872Y-131156942D02*
X144931396Y-131096466D01*
X144931396Y-131096466D02*
X144870919Y-130975514D01*
X144870919Y-130975514D02*
X144870919Y-130552180D01*
X144568538Y-131761704D02*
X144568538Y-132366466D01*
X144205681Y-131640752D02*
X145475681Y-132064085D01*
X145475681Y-132064085D02*
X144205681Y-132487419D01*
X145475681Y-132789799D02*
X145475681Y-133575990D01*
X145475681Y-133575990D02*
X144991872Y-133152656D01*
X144991872Y-133152656D02*
X144991872Y-133334085D01*
X144991872Y-133334085D02*
X144931396Y-133455037D01*
X144931396Y-133455037D02*
X144870919Y-133515513D01*
X144870919Y-133515513D02*
X144749967Y-133575990D01*
X144749967Y-133575990D02*
X144447586Y-133575990D01*
X144447586Y-133575990D02*
X144326634Y-133515513D01*
X144326634Y-133515513D02*
X144266158Y-133455037D01*
X144266158Y-133455037D02*
X144205681Y-133334085D01*
X144205681Y-133334085D02*
X144205681Y-132971228D01*
X144205681Y-132971228D02*
X144266158Y-132850275D01*
X144266158Y-132850275D02*
X144326634Y-132789799D01*
X142330919Y-130975514D02*
X142270443Y-131156942D01*
X142270443Y-131156942D02*
X142209967Y-131217419D01*
X142209967Y-131217419D02*
X142089015Y-131277895D01*
X142089015Y-131277895D02*
X141907586Y-131277895D01*
X141907586Y-131277895D02*
X141786634Y-131217419D01*
X141786634Y-131217419D02*
X141726158Y-131156942D01*
X141726158Y-131156942D02*
X141665681Y-131035990D01*
X141665681Y-131035990D02*
X141665681Y-130552180D01*
X141665681Y-130552180D02*
X142935681Y-130552180D01*
X142935681Y-130552180D02*
X142935681Y-130975514D01*
X142935681Y-130975514D02*
X142875205Y-131096466D01*
X142875205Y-131096466D02*
X142814729Y-131156942D01*
X142814729Y-131156942D02*
X142693777Y-131217419D01*
X142693777Y-131217419D02*
X142572824Y-131217419D01*
X142572824Y-131217419D02*
X142451872Y-131156942D01*
X142451872Y-131156942D02*
X142391396Y-131096466D01*
X142391396Y-131096466D02*
X142330919Y-130975514D01*
X142330919Y-130975514D02*
X142330919Y-130552180D01*
X142028538Y-131761704D02*
X142028538Y-132366466D01*
X141665681Y-131640752D02*
X142935681Y-132064085D01*
X142935681Y-132064085D02*
X141665681Y-132487419D01*
X141665681Y-133575990D02*
X141665681Y-132850275D01*
X141665681Y-133213132D02*
X142935681Y-133213132D01*
X142935681Y-133213132D02*
X142754253Y-133092180D01*
X142754253Y-133092180D02*
X142633300Y-132971228D01*
X142633300Y-132971228D02*
X142572824Y-132850275D01*
X185510919Y-141227819D02*
X185450443Y-141409247D01*
X185450443Y-141409247D02*
X185389967Y-141469724D01*
X185389967Y-141469724D02*
X185269015Y-141530200D01*
X185269015Y-141530200D02*
X185087586Y-141530200D01*
X185087586Y-141530200D02*
X184966634Y-141469724D01*
X184966634Y-141469724D02*
X184906158Y-141409247D01*
X184906158Y-141409247D02*
X184845681Y-141288295D01*
X184845681Y-141288295D02*
X184845681Y-140804485D01*
X184845681Y-140804485D02*
X186115681Y-140804485D01*
X186115681Y-140804485D02*
X186115681Y-141227819D01*
X186115681Y-141227819D02*
X186055205Y-141348771D01*
X186055205Y-141348771D02*
X185994729Y-141409247D01*
X185994729Y-141409247D02*
X185873777Y-141469724D01*
X185873777Y-141469724D02*
X185752824Y-141469724D01*
X185752824Y-141469724D02*
X185631872Y-141409247D01*
X185631872Y-141409247D02*
X185571396Y-141348771D01*
X185571396Y-141348771D02*
X185510919Y-141227819D01*
X185510919Y-141227819D02*
X185510919Y-140804485D01*
X184845681Y-142074485D02*
X186115681Y-142074485D01*
X186115681Y-142074485D02*
X186115681Y-142376866D01*
X186115681Y-142376866D02*
X186055205Y-142558295D01*
X186055205Y-142558295D02*
X185934253Y-142679247D01*
X185934253Y-142679247D02*
X185813300Y-142739724D01*
X185813300Y-142739724D02*
X185571396Y-142800200D01*
X185571396Y-142800200D02*
X185389967Y-142800200D01*
X185389967Y-142800200D02*
X185148062Y-142739724D01*
X185148062Y-142739724D02*
X185027110Y-142679247D01*
X185027110Y-142679247D02*
X184906158Y-142558295D01*
X184906158Y-142558295D02*
X184845681Y-142376866D01*
X184845681Y-142376866D02*
X184845681Y-142074485D01*
X186115681Y-143888771D02*
X186115681Y-143646866D01*
X186115681Y-143646866D02*
X186055205Y-143525914D01*
X186055205Y-143525914D02*
X185994729Y-143465438D01*
X185994729Y-143465438D02*
X185813300Y-143344485D01*
X185813300Y-143344485D02*
X185571396Y-143284009D01*
X185571396Y-143284009D02*
X185087586Y-143284009D01*
X185087586Y-143284009D02*
X184966634Y-143344485D01*
X184966634Y-143344485D02*
X184906158Y-143404962D01*
X184906158Y-143404962D02*
X184845681Y-143525914D01*
X184845681Y-143525914D02*
X184845681Y-143767819D01*
X184845681Y-143767819D02*
X184906158Y-143888771D01*
X184906158Y-143888771D02*
X184966634Y-143949247D01*
X184966634Y-143949247D02*
X185087586Y-144009724D01*
X185087586Y-144009724D02*
X185389967Y-144009724D01*
X185389967Y-144009724D02*
X185510919Y-143949247D01*
X185510919Y-143949247D02*
X185571396Y-143888771D01*
X185571396Y-143888771D02*
X185631872Y-143767819D01*
X185631872Y-143767819D02*
X185631872Y-143525914D01*
X185631872Y-143525914D02*
X185571396Y-143404962D01*
X185571396Y-143404962D02*
X185510919Y-143344485D01*
X185510919Y-143344485D02*
X185389967Y-143284009D01*
X182970919Y-141227819D02*
X182910443Y-141409247D01*
X182910443Y-141409247D02*
X182849967Y-141469724D01*
X182849967Y-141469724D02*
X182729015Y-141530200D01*
X182729015Y-141530200D02*
X182547586Y-141530200D01*
X182547586Y-141530200D02*
X182426634Y-141469724D01*
X182426634Y-141469724D02*
X182366158Y-141409247D01*
X182366158Y-141409247D02*
X182305681Y-141288295D01*
X182305681Y-141288295D02*
X182305681Y-140804485D01*
X182305681Y-140804485D02*
X183575681Y-140804485D01*
X183575681Y-140804485D02*
X183575681Y-141227819D01*
X183575681Y-141227819D02*
X183515205Y-141348771D01*
X183515205Y-141348771D02*
X183454729Y-141409247D01*
X183454729Y-141409247D02*
X183333777Y-141469724D01*
X183333777Y-141469724D02*
X183212824Y-141469724D01*
X183212824Y-141469724D02*
X183091872Y-141409247D01*
X183091872Y-141409247D02*
X183031396Y-141348771D01*
X183031396Y-141348771D02*
X182970919Y-141227819D01*
X182970919Y-141227819D02*
X182970919Y-140804485D01*
X182305681Y-142074485D02*
X183575681Y-142074485D01*
X183575681Y-142074485D02*
X183575681Y-142376866D01*
X183575681Y-142376866D02*
X183515205Y-142558295D01*
X183515205Y-142558295D02*
X183394253Y-142679247D01*
X183394253Y-142679247D02*
X183273300Y-142739724D01*
X183273300Y-142739724D02*
X183031396Y-142800200D01*
X183031396Y-142800200D02*
X182849967Y-142800200D01*
X182849967Y-142800200D02*
X182608062Y-142739724D01*
X182608062Y-142739724D02*
X182487110Y-142679247D01*
X182487110Y-142679247D02*
X182366158Y-142558295D01*
X182366158Y-142558295D02*
X182305681Y-142376866D01*
X182305681Y-142376866D02*
X182305681Y-142074485D01*
X183152348Y-143888771D02*
X182305681Y-143888771D01*
X183636158Y-143586390D02*
X182729015Y-143284009D01*
X182729015Y-143284009D02*
X182729015Y-144070200D01*
X180430919Y-141227819D02*
X180370443Y-141409247D01*
X180370443Y-141409247D02*
X180309967Y-141469724D01*
X180309967Y-141469724D02*
X180189015Y-141530200D01*
X180189015Y-141530200D02*
X180007586Y-141530200D01*
X180007586Y-141530200D02*
X179886634Y-141469724D01*
X179886634Y-141469724D02*
X179826158Y-141409247D01*
X179826158Y-141409247D02*
X179765681Y-141288295D01*
X179765681Y-141288295D02*
X179765681Y-140804485D01*
X179765681Y-140804485D02*
X181035681Y-140804485D01*
X181035681Y-140804485D02*
X181035681Y-141227819D01*
X181035681Y-141227819D02*
X180975205Y-141348771D01*
X180975205Y-141348771D02*
X180914729Y-141409247D01*
X180914729Y-141409247D02*
X180793777Y-141469724D01*
X180793777Y-141469724D02*
X180672824Y-141469724D01*
X180672824Y-141469724D02*
X180551872Y-141409247D01*
X180551872Y-141409247D02*
X180491396Y-141348771D01*
X180491396Y-141348771D02*
X180430919Y-141227819D01*
X180430919Y-141227819D02*
X180430919Y-140804485D01*
X179765681Y-142074485D02*
X181035681Y-142074485D01*
X181035681Y-142074485D02*
X181035681Y-142376866D01*
X181035681Y-142376866D02*
X180975205Y-142558295D01*
X180975205Y-142558295D02*
X180854253Y-142679247D01*
X180854253Y-142679247D02*
X180733300Y-142739724D01*
X180733300Y-142739724D02*
X180491396Y-142800200D01*
X180491396Y-142800200D02*
X180309967Y-142800200D01*
X180309967Y-142800200D02*
X180068062Y-142739724D01*
X180068062Y-142739724D02*
X179947110Y-142679247D01*
X179947110Y-142679247D02*
X179826158Y-142558295D01*
X179826158Y-142558295D02*
X179765681Y-142376866D01*
X179765681Y-142376866D02*
X179765681Y-142074485D01*
X180914729Y-143284009D02*
X180975205Y-143344485D01*
X180975205Y-143344485D02*
X181035681Y-143465438D01*
X181035681Y-143465438D02*
X181035681Y-143767819D01*
X181035681Y-143767819D02*
X180975205Y-143888771D01*
X180975205Y-143888771D02*
X180914729Y-143949247D01*
X180914729Y-143949247D02*
X180793777Y-144009724D01*
X180793777Y-144009724D02*
X180672824Y-144009724D01*
X180672824Y-144009724D02*
X180491396Y-143949247D01*
X180491396Y-143949247D02*
X179765681Y-143223533D01*
X179765681Y-143223533D02*
X179765681Y-144009724D01*
X177890919Y-141227819D02*
X177830443Y-141409247D01*
X177830443Y-141409247D02*
X177769967Y-141469724D01*
X177769967Y-141469724D02*
X177649015Y-141530200D01*
X177649015Y-141530200D02*
X177467586Y-141530200D01*
X177467586Y-141530200D02*
X177346634Y-141469724D01*
X177346634Y-141469724D02*
X177286158Y-141409247D01*
X177286158Y-141409247D02*
X177225681Y-141288295D01*
X177225681Y-141288295D02*
X177225681Y-140804485D01*
X177225681Y-140804485D02*
X178495681Y-140804485D01*
X178495681Y-140804485D02*
X178495681Y-141227819D01*
X178495681Y-141227819D02*
X178435205Y-141348771D01*
X178435205Y-141348771D02*
X178374729Y-141409247D01*
X178374729Y-141409247D02*
X178253777Y-141469724D01*
X178253777Y-141469724D02*
X178132824Y-141469724D01*
X178132824Y-141469724D02*
X178011872Y-141409247D01*
X178011872Y-141409247D02*
X177951396Y-141348771D01*
X177951396Y-141348771D02*
X177890919Y-141227819D01*
X177890919Y-141227819D02*
X177890919Y-140804485D01*
X177225681Y-142074485D02*
X178495681Y-142074485D01*
X178495681Y-142074485D02*
X178495681Y-142376866D01*
X178495681Y-142376866D02*
X178435205Y-142558295D01*
X178435205Y-142558295D02*
X178314253Y-142679247D01*
X178314253Y-142679247D02*
X178193300Y-142739724D01*
X178193300Y-142739724D02*
X177951396Y-142800200D01*
X177951396Y-142800200D02*
X177769967Y-142800200D01*
X177769967Y-142800200D02*
X177528062Y-142739724D01*
X177528062Y-142739724D02*
X177407110Y-142679247D01*
X177407110Y-142679247D02*
X177286158Y-142558295D01*
X177286158Y-142558295D02*
X177225681Y-142376866D01*
X177225681Y-142376866D02*
X177225681Y-142074485D01*
X178495681Y-143586390D02*
X178495681Y-143707343D01*
X178495681Y-143707343D02*
X178435205Y-143828295D01*
X178435205Y-143828295D02*
X178374729Y-143888771D01*
X178374729Y-143888771D02*
X178253777Y-143949247D01*
X178253777Y-143949247D02*
X178011872Y-144009724D01*
X178011872Y-144009724D02*
X177709491Y-144009724D01*
X177709491Y-144009724D02*
X177467586Y-143949247D01*
X177467586Y-143949247D02*
X177346634Y-143888771D01*
X177346634Y-143888771D02*
X177286158Y-143828295D01*
X177286158Y-143828295D02*
X177225681Y-143707343D01*
X177225681Y-143707343D02*
X177225681Y-143586390D01*
X177225681Y-143586390D02*
X177286158Y-143465438D01*
X177286158Y-143465438D02*
X177346634Y-143404962D01*
X177346634Y-143404962D02*
X177467586Y-143344485D01*
X177467586Y-143344485D02*
X177709491Y-143284009D01*
X177709491Y-143284009D02*
X178011872Y-143284009D01*
X178011872Y-143284009D02*
X178253777Y-143344485D01*
X178253777Y-143344485D02*
X178374729Y-143404962D01*
X178374729Y-143404962D02*
X178435205Y-143465438D01*
X178435205Y-143465438D02*
X178495681Y-143586390D01*
X172810919Y-141227819D02*
X172750443Y-141409247D01*
X172750443Y-141409247D02*
X172689967Y-141469724D01*
X172689967Y-141469724D02*
X172569015Y-141530200D01*
X172569015Y-141530200D02*
X172387586Y-141530200D01*
X172387586Y-141530200D02*
X172266634Y-141469724D01*
X172266634Y-141469724D02*
X172206158Y-141409247D01*
X172206158Y-141409247D02*
X172145681Y-141288295D01*
X172145681Y-141288295D02*
X172145681Y-140804485D01*
X172145681Y-140804485D02*
X173415681Y-140804485D01*
X173415681Y-140804485D02*
X173415681Y-141227819D01*
X173415681Y-141227819D02*
X173355205Y-141348771D01*
X173355205Y-141348771D02*
X173294729Y-141409247D01*
X173294729Y-141409247D02*
X173173777Y-141469724D01*
X173173777Y-141469724D02*
X173052824Y-141469724D01*
X173052824Y-141469724D02*
X172931872Y-141409247D01*
X172931872Y-141409247D02*
X172871396Y-141348771D01*
X172871396Y-141348771D02*
X172810919Y-141227819D01*
X172810919Y-141227819D02*
X172810919Y-140804485D01*
X172145681Y-142800200D02*
X172750443Y-142376866D01*
X172145681Y-142074485D02*
X173415681Y-142074485D01*
X173415681Y-142074485D02*
X173415681Y-142558295D01*
X173415681Y-142558295D02*
X173355205Y-142679247D01*
X173355205Y-142679247D02*
X173294729Y-142739724D01*
X173294729Y-142739724D02*
X173173777Y-142800200D01*
X173173777Y-142800200D02*
X172992348Y-142800200D01*
X172992348Y-142800200D02*
X172871396Y-142739724D01*
X172871396Y-142739724D02*
X172810919Y-142679247D01*
X172810919Y-142679247D02*
X172750443Y-142558295D01*
X172750443Y-142558295D02*
X172750443Y-142074485D01*
X173415681Y-143525914D02*
X173113300Y-143525914D01*
X173234253Y-143223533D02*
X173113300Y-143525914D01*
X173113300Y-143525914D02*
X173234253Y-143828295D01*
X172871396Y-143344485D02*
X173113300Y-143525914D01*
X173113300Y-143525914D02*
X172871396Y-143707343D01*
X173415681Y-144493533D02*
X173113300Y-144493533D01*
X173234253Y-144191152D02*
X173113300Y-144493533D01*
X173113300Y-144493533D02*
X173234253Y-144795914D01*
X172871396Y-144312104D02*
X173113300Y-144493533D01*
X173113300Y-144493533D02*
X172871396Y-144674962D01*
X173415681Y-145158771D02*
X172145681Y-145461152D01*
X172145681Y-145461152D02*
X173052824Y-145703057D01*
X173052824Y-145703057D02*
X172145681Y-145944962D01*
X172145681Y-145944962D02*
X173415681Y-146247343D01*
X168335681Y-140985914D02*
X168033300Y-140985914D01*
X168154253Y-140683533D02*
X168033300Y-140985914D01*
X168033300Y-140985914D02*
X168154253Y-141288295D01*
X167791396Y-140804485D02*
X168033300Y-140985914D01*
X168033300Y-140985914D02*
X167791396Y-141167343D01*
X167730919Y-142195438D02*
X167670443Y-142376866D01*
X167670443Y-142376866D02*
X167609967Y-142437343D01*
X167609967Y-142437343D02*
X167489015Y-142497819D01*
X167489015Y-142497819D02*
X167307586Y-142497819D01*
X167307586Y-142497819D02*
X167186634Y-142437343D01*
X167186634Y-142437343D02*
X167126158Y-142376866D01*
X167126158Y-142376866D02*
X167065681Y-142255914D01*
X167065681Y-142255914D02*
X167065681Y-141772104D01*
X167065681Y-141772104D02*
X168335681Y-141772104D01*
X168335681Y-141772104D02*
X168335681Y-142195438D01*
X168335681Y-142195438D02*
X168275205Y-142316390D01*
X168275205Y-142316390D02*
X168214729Y-142376866D01*
X168214729Y-142376866D02*
X168093777Y-142437343D01*
X168093777Y-142437343D02*
X167972824Y-142437343D01*
X167972824Y-142437343D02*
X167851872Y-142376866D01*
X167851872Y-142376866D02*
X167791396Y-142316390D01*
X167791396Y-142316390D02*
X167730919Y-142195438D01*
X167730919Y-142195438D02*
X167730919Y-141772104D01*
X167126158Y-142981628D02*
X167065681Y-143163057D01*
X167065681Y-143163057D02*
X167065681Y-143465438D01*
X167065681Y-143465438D02*
X167126158Y-143586390D01*
X167126158Y-143586390D02*
X167186634Y-143646866D01*
X167186634Y-143646866D02*
X167307586Y-143707343D01*
X167307586Y-143707343D02*
X167428538Y-143707343D01*
X167428538Y-143707343D02*
X167549491Y-143646866D01*
X167549491Y-143646866D02*
X167609967Y-143586390D01*
X167609967Y-143586390D02*
X167670443Y-143465438D01*
X167670443Y-143465438D02*
X167730919Y-143223533D01*
X167730919Y-143223533D02*
X167791396Y-143102581D01*
X167791396Y-143102581D02*
X167851872Y-143042104D01*
X167851872Y-143042104D02*
X167972824Y-142981628D01*
X167972824Y-142981628D02*
X168093777Y-142981628D01*
X168093777Y-142981628D02*
X168214729Y-143042104D01*
X168214729Y-143042104D02*
X168275205Y-143102581D01*
X168275205Y-143102581D02*
X168335681Y-143223533D01*
X168335681Y-143223533D02*
X168335681Y-143525914D01*
X168335681Y-143525914D02*
X168275205Y-143707343D01*
X168335681Y-144070200D02*
X168335681Y-144795914D01*
X167065681Y-144433057D02*
X168335681Y-144433057D01*
X167428538Y-145158771D02*
X167428538Y-145763533D01*
X167065681Y-145037819D02*
X168335681Y-145461152D01*
X168335681Y-145461152D02*
X167065681Y-145884486D01*
X167065681Y-147033533D02*
X167670443Y-146610199D01*
X167065681Y-146307818D02*
X168335681Y-146307818D01*
X168335681Y-146307818D02*
X168335681Y-146791628D01*
X168335681Y-146791628D02*
X168275205Y-146912580D01*
X168275205Y-146912580D02*
X168214729Y-146973057D01*
X168214729Y-146973057D02*
X168093777Y-147033533D01*
X168093777Y-147033533D02*
X167912348Y-147033533D01*
X167912348Y-147033533D02*
X167791396Y-146973057D01*
X167791396Y-146973057D02*
X167730919Y-146912580D01*
X167730919Y-146912580D02*
X167670443Y-146791628D01*
X167670443Y-146791628D02*
X167670443Y-146307818D01*
X168335681Y-147396390D02*
X168335681Y-148122104D01*
X167065681Y-147759247D02*
X168335681Y-147759247D01*
X160110919Y-141227819D02*
X160050443Y-141409247D01*
X160050443Y-141409247D02*
X159989967Y-141469724D01*
X159989967Y-141469724D02*
X159869015Y-141530200D01*
X159869015Y-141530200D02*
X159687586Y-141530200D01*
X159687586Y-141530200D02*
X159566634Y-141469724D01*
X159566634Y-141469724D02*
X159506158Y-141409247D01*
X159506158Y-141409247D02*
X159445681Y-141288295D01*
X159445681Y-141288295D02*
X159445681Y-140804485D01*
X159445681Y-140804485D02*
X160715681Y-140804485D01*
X160715681Y-140804485D02*
X160715681Y-141227819D01*
X160715681Y-141227819D02*
X160655205Y-141348771D01*
X160655205Y-141348771D02*
X160594729Y-141409247D01*
X160594729Y-141409247D02*
X160473777Y-141469724D01*
X160473777Y-141469724D02*
X160352824Y-141469724D01*
X160352824Y-141469724D02*
X160231872Y-141409247D01*
X160231872Y-141409247D02*
X160171396Y-141348771D01*
X160171396Y-141348771D02*
X160110919Y-141227819D01*
X160110919Y-141227819D02*
X160110919Y-140804485D01*
X159808538Y-142014009D02*
X159808538Y-142618771D01*
X159445681Y-141893057D02*
X160715681Y-142316390D01*
X160715681Y-142316390D02*
X159445681Y-142739724D01*
X159445681Y-143828295D02*
X159445681Y-143102580D01*
X159445681Y-143465437D02*
X160715681Y-143465437D01*
X160715681Y-143465437D02*
X160534253Y-143344485D01*
X160534253Y-143344485D02*
X160413300Y-143223533D01*
X160413300Y-143223533D02*
X160352824Y-143102580D01*
X160292348Y-144916866D02*
X159445681Y-144916866D01*
X160776158Y-144614485D02*
X159869015Y-144312104D01*
X159869015Y-144312104D02*
X159869015Y-145098295D01*
X157570919Y-141227819D02*
X157510443Y-141409247D01*
X157510443Y-141409247D02*
X157449967Y-141469724D01*
X157449967Y-141469724D02*
X157329015Y-141530200D01*
X157329015Y-141530200D02*
X157147586Y-141530200D01*
X157147586Y-141530200D02*
X157026634Y-141469724D01*
X157026634Y-141469724D02*
X156966158Y-141409247D01*
X156966158Y-141409247D02*
X156905681Y-141288295D01*
X156905681Y-141288295D02*
X156905681Y-140804485D01*
X156905681Y-140804485D02*
X158175681Y-140804485D01*
X158175681Y-140804485D02*
X158175681Y-141227819D01*
X158175681Y-141227819D02*
X158115205Y-141348771D01*
X158115205Y-141348771D02*
X158054729Y-141409247D01*
X158054729Y-141409247D02*
X157933777Y-141469724D01*
X157933777Y-141469724D02*
X157812824Y-141469724D01*
X157812824Y-141469724D02*
X157691872Y-141409247D01*
X157691872Y-141409247D02*
X157631396Y-141348771D01*
X157631396Y-141348771D02*
X157570919Y-141227819D01*
X157570919Y-141227819D02*
X157570919Y-140804485D01*
X157268538Y-142014009D02*
X157268538Y-142618771D01*
X156905681Y-141893057D02*
X158175681Y-142316390D01*
X158175681Y-142316390D02*
X156905681Y-142739724D01*
X156905681Y-143828295D02*
X156905681Y-143102580D01*
X156905681Y-143465437D02*
X158175681Y-143465437D01*
X158175681Y-143465437D02*
X157994253Y-143344485D01*
X157994253Y-143344485D02*
X157873300Y-143223533D01*
X157873300Y-143223533D02*
X157812824Y-143102580D01*
X158054729Y-144312104D02*
X158115205Y-144372580D01*
X158115205Y-144372580D02*
X158175681Y-144493533D01*
X158175681Y-144493533D02*
X158175681Y-144795914D01*
X158175681Y-144795914D02*
X158115205Y-144916866D01*
X158115205Y-144916866D02*
X158054729Y-144977342D01*
X158054729Y-144977342D02*
X157933777Y-145037819D01*
X157933777Y-145037819D02*
X157812824Y-145037819D01*
X157812824Y-145037819D02*
X157631396Y-144977342D01*
X157631396Y-144977342D02*
X156905681Y-144251628D01*
X156905681Y-144251628D02*
X156905681Y-145037819D01*
X155030919Y-141227819D02*
X154970443Y-141409247D01*
X154970443Y-141409247D02*
X154909967Y-141469724D01*
X154909967Y-141469724D02*
X154789015Y-141530200D01*
X154789015Y-141530200D02*
X154607586Y-141530200D01*
X154607586Y-141530200D02*
X154486634Y-141469724D01*
X154486634Y-141469724D02*
X154426158Y-141409247D01*
X154426158Y-141409247D02*
X154365681Y-141288295D01*
X154365681Y-141288295D02*
X154365681Y-140804485D01*
X154365681Y-140804485D02*
X155635681Y-140804485D01*
X155635681Y-140804485D02*
X155635681Y-141227819D01*
X155635681Y-141227819D02*
X155575205Y-141348771D01*
X155575205Y-141348771D02*
X155514729Y-141409247D01*
X155514729Y-141409247D02*
X155393777Y-141469724D01*
X155393777Y-141469724D02*
X155272824Y-141469724D01*
X155272824Y-141469724D02*
X155151872Y-141409247D01*
X155151872Y-141409247D02*
X155091396Y-141348771D01*
X155091396Y-141348771D02*
X155030919Y-141227819D01*
X155030919Y-141227819D02*
X155030919Y-140804485D01*
X154728538Y-142014009D02*
X154728538Y-142618771D01*
X154365681Y-141893057D02*
X155635681Y-142316390D01*
X155635681Y-142316390D02*
X154365681Y-142739724D01*
X154365681Y-143828295D02*
X154365681Y-143102580D01*
X154365681Y-143465437D02*
X155635681Y-143465437D01*
X155635681Y-143465437D02*
X155454253Y-143344485D01*
X155454253Y-143344485D02*
X155333300Y-143223533D01*
X155333300Y-143223533D02*
X155272824Y-143102580D01*
X155635681Y-144614485D02*
X155635681Y-144735438D01*
X155635681Y-144735438D02*
X155575205Y-144856390D01*
X155575205Y-144856390D02*
X155514729Y-144916866D01*
X155514729Y-144916866D02*
X155393777Y-144977342D01*
X155393777Y-144977342D02*
X155151872Y-145037819D01*
X155151872Y-145037819D02*
X154849491Y-145037819D01*
X154849491Y-145037819D02*
X154607586Y-144977342D01*
X154607586Y-144977342D02*
X154486634Y-144916866D01*
X154486634Y-144916866D02*
X154426158Y-144856390D01*
X154426158Y-144856390D02*
X154365681Y-144735438D01*
X154365681Y-144735438D02*
X154365681Y-144614485D01*
X154365681Y-144614485D02*
X154426158Y-144493533D01*
X154426158Y-144493533D02*
X154486634Y-144433057D01*
X154486634Y-144433057D02*
X154607586Y-144372580D01*
X154607586Y-144372580D02*
X154849491Y-144312104D01*
X154849491Y-144312104D02*
X155151872Y-144312104D01*
X155151872Y-144312104D02*
X155393777Y-144372580D01*
X155393777Y-144372580D02*
X155514729Y-144433057D01*
X155514729Y-144433057D02*
X155575205Y-144493533D01*
X155575205Y-144493533D02*
X155635681Y-144614485D01*
X152490919Y-141227819D02*
X152430443Y-141409247D01*
X152430443Y-141409247D02*
X152369967Y-141469724D01*
X152369967Y-141469724D02*
X152249015Y-141530200D01*
X152249015Y-141530200D02*
X152067586Y-141530200D01*
X152067586Y-141530200D02*
X151946634Y-141469724D01*
X151946634Y-141469724D02*
X151886158Y-141409247D01*
X151886158Y-141409247D02*
X151825681Y-141288295D01*
X151825681Y-141288295D02*
X151825681Y-140804485D01*
X151825681Y-140804485D02*
X153095681Y-140804485D01*
X153095681Y-140804485D02*
X153095681Y-141227819D01*
X153095681Y-141227819D02*
X153035205Y-141348771D01*
X153035205Y-141348771D02*
X152974729Y-141409247D01*
X152974729Y-141409247D02*
X152853777Y-141469724D01*
X152853777Y-141469724D02*
X152732824Y-141469724D01*
X152732824Y-141469724D02*
X152611872Y-141409247D01*
X152611872Y-141409247D02*
X152551396Y-141348771D01*
X152551396Y-141348771D02*
X152490919Y-141227819D01*
X152490919Y-141227819D02*
X152490919Y-140804485D01*
X152188538Y-142014009D02*
X152188538Y-142618771D01*
X151825681Y-141893057D02*
X153095681Y-142316390D01*
X153095681Y-142316390D02*
X151825681Y-142739724D01*
X152551396Y-143344485D02*
X152611872Y-143223533D01*
X152611872Y-143223533D02*
X152672348Y-143163056D01*
X152672348Y-143163056D02*
X152793300Y-143102580D01*
X152793300Y-143102580D02*
X152853777Y-143102580D01*
X152853777Y-143102580D02*
X152974729Y-143163056D01*
X152974729Y-143163056D02*
X153035205Y-143223533D01*
X153035205Y-143223533D02*
X153095681Y-143344485D01*
X153095681Y-143344485D02*
X153095681Y-143586390D01*
X153095681Y-143586390D02*
X153035205Y-143707342D01*
X153035205Y-143707342D02*
X152974729Y-143767818D01*
X152974729Y-143767818D02*
X152853777Y-143828295D01*
X152853777Y-143828295D02*
X152793300Y-143828295D01*
X152793300Y-143828295D02*
X152672348Y-143767818D01*
X152672348Y-143767818D02*
X152611872Y-143707342D01*
X152611872Y-143707342D02*
X152551396Y-143586390D01*
X152551396Y-143586390D02*
X152551396Y-143344485D01*
X152551396Y-143344485D02*
X152490919Y-143223533D01*
X152490919Y-143223533D02*
X152430443Y-143163056D01*
X152430443Y-143163056D02*
X152309491Y-143102580D01*
X152309491Y-143102580D02*
X152067586Y-143102580D01*
X152067586Y-143102580D02*
X151946634Y-143163056D01*
X151946634Y-143163056D02*
X151886158Y-143223533D01*
X151886158Y-143223533D02*
X151825681Y-143344485D01*
X151825681Y-143344485D02*
X151825681Y-143586390D01*
X151825681Y-143586390D02*
X151886158Y-143707342D01*
X151886158Y-143707342D02*
X151946634Y-143767818D01*
X151946634Y-143767818D02*
X152067586Y-143828295D01*
X152067586Y-143828295D02*
X152309491Y-143828295D01*
X152309491Y-143828295D02*
X152430443Y-143767818D01*
X152430443Y-143767818D02*
X152490919Y-143707342D01*
X152490919Y-143707342D02*
X152551396Y-143586390D01*
X149950919Y-141227819D02*
X149890443Y-141409247D01*
X149890443Y-141409247D02*
X149829967Y-141469724D01*
X149829967Y-141469724D02*
X149709015Y-141530200D01*
X149709015Y-141530200D02*
X149527586Y-141530200D01*
X149527586Y-141530200D02*
X149406634Y-141469724D01*
X149406634Y-141469724D02*
X149346158Y-141409247D01*
X149346158Y-141409247D02*
X149285681Y-141288295D01*
X149285681Y-141288295D02*
X149285681Y-140804485D01*
X149285681Y-140804485D02*
X150555681Y-140804485D01*
X150555681Y-140804485D02*
X150555681Y-141227819D01*
X150555681Y-141227819D02*
X150495205Y-141348771D01*
X150495205Y-141348771D02*
X150434729Y-141409247D01*
X150434729Y-141409247D02*
X150313777Y-141469724D01*
X150313777Y-141469724D02*
X150192824Y-141469724D01*
X150192824Y-141469724D02*
X150071872Y-141409247D01*
X150071872Y-141409247D02*
X150011396Y-141348771D01*
X150011396Y-141348771D02*
X149950919Y-141227819D01*
X149950919Y-141227819D02*
X149950919Y-140804485D01*
X149648538Y-142014009D02*
X149648538Y-142618771D01*
X149285681Y-141893057D02*
X150555681Y-142316390D01*
X150555681Y-142316390D02*
X149285681Y-142739724D01*
X150555681Y-143707342D02*
X150555681Y-143465437D01*
X150555681Y-143465437D02*
X150495205Y-143344485D01*
X150495205Y-143344485D02*
X150434729Y-143284009D01*
X150434729Y-143284009D02*
X150253300Y-143163056D01*
X150253300Y-143163056D02*
X150011396Y-143102580D01*
X150011396Y-143102580D02*
X149527586Y-143102580D01*
X149527586Y-143102580D02*
X149406634Y-143163056D01*
X149406634Y-143163056D02*
X149346158Y-143223533D01*
X149346158Y-143223533D02*
X149285681Y-143344485D01*
X149285681Y-143344485D02*
X149285681Y-143586390D01*
X149285681Y-143586390D02*
X149346158Y-143707342D01*
X149346158Y-143707342D02*
X149406634Y-143767818D01*
X149406634Y-143767818D02*
X149527586Y-143828295D01*
X149527586Y-143828295D02*
X149829967Y-143828295D01*
X149829967Y-143828295D02*
X149950919Y-143767818D01*
X149950919Y-143767818D02*
X150011396Y-143707342D01*
X150011396Y-143707342D02*
X150071872Y-143586390D01*
X150071872Y-143586390D02*
X150071872Y-143344485D01*
X150071872Y-143344485D02*
X150011396Y-143223533D01*
X150011396Y-143223533D02*
X149950919Y-143163056D01*
X149950919Y-143163056D02*
X149829967Y-143102580D01*
X147410919Y-141227819D02*
X147350443Y-141409247D01*
X147350443Y-141409247D02*
X147289967Y-141469724D01*
X147289967Y-141469724D02*
X147169015Y-141530200D01*
X147169015Y-141530200D02*
X146987586Y-141530200D01*
X146987586Y-141530200D02*
X146866634Y-141469724D01*
X146866634Y-141469724D02*
X146806158Y-141409247D01*
X146806158Y-141409247D02*
X146745681Y-141288295D01*
X146745681Y-141288295D02*
X146745681Y-140804485D01*
X146745681Y-140804485D02*
X148015681Y-140804485D01*
X148015681Y-140804485D02*
X148015681Y-141227819D01*
X148015681Y-141227819D02*
X147955205Y-141348771D01*
X147955205Y-141348771D02*
X147894729Y-141409247D01*
X147894729Y-141409247D02*
X147773777Y-141469724D01*
X147773777Y-141469724D02*
X147652824Y-141469724D01*
X147652824Y-141469724D02*
X147531872Y-141409247D01*
X147531872Y-141409247D02*
X147471396Y-141348771D01*
X147471396Y-141348771D02*
X147410919Y-141227819D01*
X147410919Y-141227819D02*
X147410919Y-140804485D01*
X147108538Y-142014009D02*
X147108538Y-142618771D01*
X146745681Y-141893057D02*
X148015681Y-142316390D01*
X148015681Y-142316390D02*
X146745681Y-142739724D01*
X147592348Y-143707342D02*
X146745681Y-143707342D01*
X148076158Y-143404961D02*
X147169015Y-143102580D01*
X147169015Y-143102580D02*
X147169015Y-143888771D01*
X144870919Y-141227819D02*
X144810443Y-141409247D01*
X144810443Y-141409247D02*
X144749967Y-141469724D01*
X144749967Y-141469724D02*
X144629015Y-141530200D01*
X144629015Y-141530200D02*
X144447586Y-141530200D01*
X144447586Y-141530200D02*
X144326634Y-141469724D01*
X144326634Y-141469724D02*
X144266158Y-141409247D01*
X144266158Y-141409247D02*
X144205681Y-141288295D01*
X144205681Y-141288295D02*
X144205681Y-140804485D01*
X144205681Y-140804485D02*
X145475681Y-140804485D01*
X145475681Y-140804485D02*
X145475681Y-141227819D01*
X145475681Y-141227819D02*
X145415205Y-141348771D01*
X145415205Y-141348771D02*
X145354729Y-141409247D01*
X145354729Y-141409247D02*
X145233777Y-141469724D01*
X145233777Y-141469724D02*
X145112824Y-141469724D01*
X145112824Y-141469724D02*
X144991872Y-141409247D01*
X144991872Y-141409247D02*
X144931396Y-141348771D01*
X144931396Y-141348771D02*
X144870919Y-141227819D01*
X144870919Y-141227819D02*
X144870919Y-140804485D01*
X144568538Y-142014009D02*
X144568538Y-142618771D01*
X144205681Y-141893057D02*
X145475681Y-142316390D01*
X145475681Y-142316390D02*
X144205681Y-142739724D01*
X145354729Y-143102580D02*
X145415205Y-143163056D01*
X145415205Y-143163056D02*
X145475681Y-143284009D01*
X145475681Y-143284009D02*
X145475681Y-143586390D01*
X145475681Y-143586390D02*
X145415205Y-143707342D01*
X145415205Y-143707342D02*
X145354729Y-143767818D01*
X145354729Y-143767818D02*
X145233777Y-143828295D01*
X145233777Y-143828295D02*
X145112824Y-143828295D01*
X145112824Y-143828295D02*
X144931396Y-143767818D01*
X144931396Y-143767818D02*
X144205681Y-143042104D01*
X144205681Y-143042104D02*
X144205681Y-143828295D01*
X170875681Y-126318846D02*
X170573300Y-126318846D01*
X170694253Y-126016465D02*
X170573300Y-126318846D01*
X170573300Y-126318846D02*
X170694253Y-126621227D01*
X170331396Y-126137417D02*
X170573300Y-126318846D01*
X170573300Y-126318846D02*
X170331396Y-126500275D01*
X170270919Y-127528370D02*
X170210443Y-127709798D01*
X170210443Y-127709798D02*
X170149967Y-127770275D01*
X170149967Y-127770275D02*
X170029015Y-127830751D01*
X170029015Y-127830751D02*
X169847586Y-127830751D01*
X169847586Y-127830751D02*
X169726634Y-127770275D01*
X169726634Y-127770275D02*
X169666158Y-127709798D01*
X169666158Y-127709798D02*
X169605681Y-127588846D01*
X169605681Y-127588846D02*
X169605681Y-127105036D01*
X169605681Y-127105036D02*
X170875681Y-127105036D01*
X170875681Y-127105036D02*
X170875681Y-127528370D01*
X170875681Y-127528370D02*
X170815205Y-127649322D01*
X170815205Y-127649322D02*
X170754729Y-127709798D01*
X170754729Y-127709798D02*
X170633777Y-127770275D01*
X170633777Y-127770275D02*
X170512824Y-127770275D01*
X170512824Y-127770275D02*
X170391872Y-127709798D01*
X170391872Y-127709798D02*
X170331396Y-127649322D01*
X170331396Y-127649322D02*
X170270919Y-127528370D01*
X170270919Y-127528370D02*
X170270919Y-127105036D01*
X169605681Y-129100751D02*
X170210443Y-128677417D01*
X169605681Y-128375036D02*
X170875681Y-128375036D01*
X170875681Y-128375036D02*
X170875681Y-128858846D01*
X170875681Y-128858846D02*
X170815205Y-128979798D01*
X170815205Y-128979798D02*
X170754729Y-129040275D01*
X170754729Y-129040275D02*
X170633777Y-129100751D01*
X170633777Y-129100751D02*
X170452348Y-129100751D01*
X170452348Y-129100751D02*
X170331396Y-129040275D01*
X170331396Y-129040275D02*
X170270919Y-128979798D01*
X170270919Y-128979798D02*
X170210443Y-128858846D01*
X170210443Y-128858846D02*
X170210443Y-128375036D01*
X170270919Y-129645036D02*
X170270919Y-130068370D01*
X169605681Y-130249798D02*
X169605681Y-129645036D01*
X169605681Y-129645036D02*
X170875681Y-129645036D01*
X170875681Y-129645036D02*
X170875681Y-130249798D01*
X169666158Y-130733608D02*
X169605681Y-130915037D01*
X169605681Y-130915037D02*
X169605681Y-131217418D01*
X169605681Y-131217418D02*
X169666158Y-131338370D01*
X169666158Y-131338370D02*
X169726634Y-131398846D01*
X169726634Y-131398846D02*
X169847586Y-131459323D01*
X169847586Y-131459323D02*
X169968538Y-131459323D01*
X169968538Y-131459323D02*
X170089491Y-131398846D01*
X170089491Y-131398846D02*
X170149967Y-131338370D01*
X170149967Y-131338370D02*
X170210443Y-131217418D01*
X170210443Y-131217418D02*
X170270919Y-130975513D01*
X170270919Y-130975513D02*
X170331396Y-130854561D01*
X170331396Y-130854561D02*
X170391872Y-130794084D01*
X170391872Y-130794084D02*
X170512824Y-130733608D01*
X170512824Y-130733608D02*
X170633777Y-130733608D01*
X170633777Y-130733608D02*
X170754729Y-130794084D01*
X170754729Y-130794084D02*
X170815205Y-130854561D01*
X170815205Y-130854561D02*
X170875681Y-130975513D01*
X170875681Y-130975513D02*
X170875681Y-131277894D01*
X170875681Y-131277894D02*
X170815205Y-131459323D01*
X170270919Y-132003608D02*
X170270919Y-132426942D01*
X169605681Y-132608370D02*
X169605681Y-132003608D01*
X169605681Y-132003608D02*
X170875681Y-132003608D01*
X170875681Y-132003608D02*
X170875681Y-132608370D01*
X170875681Y-132971228D02*
X170875681Y-133696942D01*
X169605681Y-133334085D02*
X170875681Y-133334085D01*
X170875681Y-140985914D02*
X170573300Y-140985914D01*
X170694253Y-140683533D02*
X170573300Y-140985914D01*
X170573300Y-140985914D02*
X170694253Y-141288295D01*
X170331396Y-140804485D02*
X170573300Y-140985914D01*
X170573300Y-140985914D02*
X170331396Y-141167343D01*
X170270919Y-142195438D02*
X170210443Y-142376866D01*
X170210443Y-142376866D02*
X170149967Y-142437343D01*
X170149967Y-142437343D02*
X170029015Y-142497819D01*
X170029015Y-142497819D02*
X169847586Y-142497819D01*
X169847586Y-142497819D02*
X169726634Y-142437343D01*
X169726634Y-142437343D02*
X169666158Y-142376866D01*
X169666158Y-142376866D02*
X169605681Y-142255914D01*
X169605681Y-142255914D02*
X169605681Y-141772104D01*
X169605681Y-141772104D02*
X170875681Y-141772104D01*
X170875681Y-141772104D02*
X170875681Y-142195438D01*
X170875681Y-142195438D02*
X170815205Y-142316390D01*
X170815205Y-142316390D02*
X170754729Y-142376866D01*
X170754729Y-142376866D02*
X170633777Y-142437343D01*
X170633777Y-142437343D02*
X170512824Y-142437343D01*
X170512824Y-142437343D02*
X170391872Y-142376866D01*
X170391872Y-142376866D02*
X170331396Y-142316390D01*
X170331396Y-142316390D02*
X170270919Y-142195438D01*
X170270919Y-142195438D02*
X170270919Y-141772104D01*
X169605681Y-143042104D02*
X170875681Y-143042104D01*
X170875681Y-143888771D02*
X170875681Y-144130676D01*
X170875681Y-144130676D02*
X170815205Y-144251628D01*
X170815205Y-144251628D02*
X170694253Y-144372581D01*
X170694253Y-144372581D02*
X170452348Y-144433057D01*
X170452348Y-144433057D02*
X170029015Y-144433057D01*
X170029015Y-144433057D02*
X169787110Y-144372581D01*
X169787110Y-144372581D02*
X169666158Y-144251628D01*
X169666158Y-144251628D02*
X169605681Y-144130676D01*
X169605681Y-144130676D02*
X169605681Y-143888771D01*
X169605681Y-143888771D02*
X169666158Y-143767819D01*
X169666158Y-143767819D02*
X169787110Y-143646866D01*
X169787110Y-143646866D02*
X170029015Y-143586390D01*
X170029015Y-143586390D02*
X170452348Y-143586390D01*
X170452348Y-143586390D02*
X170694253Y-143646866D01*
X170694253Y-143646866D02*
X170815205Y-143767819D01*
X170815205Y-143767819D02*
X170875681Y-143888771D01*
X170875681Y-145158771D02*
X170573300Y-145158771D01*
X170694253Y-144856390D02*
X170573300Y-145158771D01*
X170573300Y-145158771D02*
X170694253Y-145461152D01*
X170331396Y-144977342D02*
X170573300Y-145158771D01*
X170573300Y-145158771D02*
X170331396Y-145340200D01*
X170875681Y-146126390D02*
X170573300Y-146126390D01*
X170694253Y-145824009D02*
X170573300Y-146126390D01*
X170573300Y-146126390D02*
X170694253Y-146428771D01*
X170331396Y-145944961D02*
X170573300Y-146126390D01*
X170573300Y-146126390D02*
X170331396Y-146307819D01*
X169605681Y-146912580D02*
X170875681Y-146912580D01*
X170875681Y-146912580D02*
X169968538Y-147335914D01*
X169968538Y-147335914D02*
X170875681Y-147759247D01*
X170875681Y-147759247D02*
X169605681Y-147759247D01*
X165795681Y-140985914D02*
X165493300Y-140985914D01*
X165614253Y-140683533D02*
X165493300Y-140985914D01*
X165493300Y-140985914D02*
X165614253Y-141288295D01*
X165251396Y-140804485D02*
X165493300Y-140985914D01*
X165493300Y-140985914D02*
X165251396Y-141167343D01*
X165190919Y-142195438D02*
X165130443Y-142376866D01*
X165130443Y-142376866D02*
X165069967Y-142437343D01*
X165069967Y-142437343D02*
X164949015Y-142497819D01*
X164949015Y-142497819D02*
X164767586Y-142497819D01*
X164767586Y-142497819D02*
X164646634Y-142437343D01*
X164646634Y-142437343D02*
X164586158Y-142376866D01*
X164586158Y-142376866D02*
X164525681Y-142255914D01*
X164525681Y-142255914D02*
X164525681Y-141772104D01*
X164525681Y-141772104D02*
X165795681Y-141772104D01*
X165795681Y-141772104D02*
X165795681Y-142195438D01*
X165795681Y-142195438D02*
X165735205Y-142316390D01*
X165735205Y-142316390D02*
X165674729Y-142376866D01*
X165674729Y-142376866D02*
X165553777Y-142437343D01*
X165553777Y-142437343D02*
X165432824Y-142437343D01*
X165432824Y-142437343D02*
X165311872Y-142376866D01*
X165311872Y-142376866D02*
X165251396Y-142316390D01*
X165251396Y-142316390D02*
X165190919Y-142195438D01*
X165190919Y-142195438D02*
X165190919Y-141772104D01*
X164525681Y-143042104D02*
X165795681Y-143042104D01*
X165795681Y-143042104D02*
X164888538Y-143465438D01*
X164888538Y-143465438D02*
X165795681Y-143888771D01*
X165795681Y-143888771D02*
X164525681Y-143888771D01*
X164888538Y-144433057D02*
X164888538Y-145037819D01*
X164525681Y-144312105D02*
X165795681Y-144735438D01*
X165795681Y-144735438D02*
X164525681Y-145158772D01*
X164586158Y-145521628D02*
X164525681Y-145703057D01*
X164525681Y-145703057D02*
X164525681Y-146005438D01*
X164525681Y-146005438D02*
X164586158Y-146126390D01*
X164586158Y-146126390D02*
X164646634Y-146186866D01*
X164646634Y-146186866D02*
X164767586Y-146247343D01*
X164767586Y-146247343D02*
X164888538Y-146247343D01*
X164888538Y-146247343D02*
X165009491Y-146186866D01*
X165009491Y-146186866D02*
X165069967Y-146126390D01*
X165069967Y-146126390D02*
X165130443Y-146005438D01*
X165130443Y-146005438D02*
X165190919Y-145763533D01*
X165190919Y-145763533D02*
X165251396Y-145642581D01*
X165251396Y-145642581D02*
X165311872Y-145582104D01*
X165311872Y-145582104D02*
X165432824Y-145521628D01*
X165432824Y-145521628D02*
X165553777Y-145521628D01*
X165553777Y-145521628D02*
X165674729Y-145582104D01*
X165674729Y-145582104D02*
X165735205Y-145642581D01*
X165735205Y-145642581D02*
X165795681Y-145763533D01*
X165795681Y-145763533D02*
X165795681Y-146065914D01*
X165795681Y-146065914D02*
X165735205Y-146247343D01*
X164525681Y-146791628D02*
X165795681Y-146791628D01*
X164525681Y-147517343D02*
X165251396Y-146973057D01*
X165795681Y-147517343D02*
X165069967Y-146791628D01*
X142330919Y-141227819D02*
X142270443Y-141409247D01*
X142270443Y-141409247D02*
X142209967Y-141469724D01*
X142209967Y-141469724D02*
X142089015Y-141530200D01*
X142089015Y-141530200D02*
X141907586Y-141530200D01*
X141907586Y-141530200D02*
X141786634Y-141469724D01*
X141786634Y-141469724D02*
X141726158Y-141409247D01*
X141726158Y-141409247D02*
X141665681Y-141288295D01*
X141665681Y-141288295D02*
X141665681Y-140804485D01*
X141665681Y-140804485D02*
X142935681Y-140804485D01*
X142935681Y-140804485D02*
X142935681Y-141227819D01*
X142935681Y-141227819D02*
X142875205Y-141348771D01*
X142875205Y-141348771D02*
X142814729Y-141409247D01*
X142814729Y-141409247D02*
X142693777Y-141469724D01*
X142693777Y-141469724D02*
X142572824Y-141469724D01*
X142572824Y-141469724D02*
X142451872Y-141409247D01*
X142451872Y-141409247D02*
X142391396Y-141348771D01*
X142391396Y-141348771D02*
X142330919Y-141227819D01*
X142330919Y-141227819D02*
X142330919Y-140804485D01*
X142028538Y-142014009D02*
X142028538Y-142618771D01*
X141665681Y-141893057D02*
X142935681Y-142316390D01*
X142935681Y-142316390D02*
X141665681Y-142739724D01*
X142935681Y-143404961D02*
X142935681Y-143525914D01*
X142935681Y-143525914D02*
X142875205Y-143646866D01*
X142875205Y-143646866D02*
X142814729Y-143707342D01*
X142814729Y-143707342D02*
X142693777Y-143767818D01*
X142693777Y-143767818D02*
X142451872Y-143828295D01*
X142451872Y-143828295D02*
X142149491Y-143828295D01*
X142149491Y-143828295D02*
X141907586Y-143767818D01*
X141907586Y-143767818D02*
X141786634Y-143707342D01*
X141786634Y-143707342D02*
X141726158Y-143646866D01*
X141726158Y-143646866D02*
X141665681Y-143525914D01*
X141665681Y-143525914D02*
X141665681Y-143404961D01*
X141665681Y-143404961D02*
X141726158Y-143284009D01*
X141726158Y-143284009D02*
X141786634Y-143223533D01*
X141786634Y-143223533D02*
X141907586Y-143163056D01*
X141907586Y-143163056D02*
X142149491Y-143102580D01*
X142149491Y-143102580D02*
X142451872Y-143102580D01*
X142451872Y-143102580D02*
X142693777Y-143163056D01*
X142693777Y-143163056D02*
X142814729Y-143223533D01*
X142814729Y-143223533D02*
X142875205Y-143284009D01*
X142875205Y-143284009D02*
X142935681Y-143404961D01*
X130477380Y-151324225D02*
X132412619Y-151324225D01*
X131444999Y-152291844D02*
X131444999Y-150356606D01*
X189230000Y-134620000D02*
X138430000Y-134620000D01*
X138430000Y-139700000D02*
X189230000Y-139700000D01*
X189230000Y-134620000D02*
X189230000Y-139700000D01*
X138430000Y-139700000D02*
X138430000Y-134620000D01*
X138430000Y-153670000D02*
X138430000Y-148590000D01*
X189230000Y-148590000D02*
X189230000Y-153670000D01*
X138430000Y-153670000D02*
X189230000Y-153670000D01*
X189230000Y-148590000D02*
X138430000Y-148590000D01*
X133350000Y-153670000D02*
X133350000Y-148590000D01*
X133350000Y-148590000D02*
X120650000Y-148590000D01*
X120650000Y-148590000D02*
X120650000Y-153670000D01*
X120650000Y-153670000D02*
X133350000Y-153670000D01*
X119380000Y-151130000D02*
X120650000Y-151130000D01*
X134620000Y-151130000D02*
X133350000Y-151130000D01*
M02*
