G04 #@! TF.GenerationSoftware,KiCad,Pcbnew,5.1.2*
G04 #@! TF.CreationDate,2020-03-26T11:17:15-04:00*
G04 #@! TF.ProjectId,gw-glitchbus-proto2,67772d67-6c69-4746-9368-6275732d7072,rev?*
G04 #@! TF.SameCoordinates,Original*
G04 #@! TF.FileFunction,Legend,Top*
G04 #@! TF.FilePolarity,Positive*
%FSLAX46Y46*%
G04 Gerber Fmt 4.6, Leading zero omitted, Abs format (unit mm)*
G04 Created by KiCad (PCBNEW 5.1.2) date 2020-03-26 11:17:15*
%MOMM*%
%LPD*%
G04 APERTURE LIST*
%ADD10C,0.254000*%
G04 APERTURE END LIST*
D10*
X176046190Y-147047857D02*
X176046190Y-148075952D01*
X175985714Y-148196904D01*
X175925238Y-148257380D01*
X175804285Y-148317857D01*
X175622857Y-148317857D01*
X175501904Y-148257380D01*
X176046190Y-147834047D02*
X175925238Y-147894523D01*
X175683333Y-147894523D01*
X175562380Y-147834047D01*
X175501904Y-147773571D01*
X175441428Y-147652619D01*
X175441428Y-147289761D01*
X175501904Y-147168809D01*
X175562380Y-147108333D01*
X175683333Y-147047857D01*
X175925238Y-147047857D01*
X176046190Y-147108333D01*
X176832380Y-147894523D02*
X176711428Y-147834047D01*
X176650952Y-147713095D01*
X176650952Y-146624523D01*
X177316190Y-147894523D02*
X177316190Y-147047857D01*
X177316190Y-146624523D02*
X177255714Y-146685000D01*
X177316190Y-146745476D01*
X177376666Y-146685000D01*
X177316190Y-146624523D01*
X177316190Y-146745476D01*
X177739523Y-147047857D02*
X178223333Y-147047857D01*
X177920952Y-146624523D02*
X177920952Y-147713095D01*
X177981428Y-147834047D01*
X178102380Y-147894523D01*
X178223333Y-147894523D01*
X179190952Y-147834047D02*
X179070000Y-147894523D01*
X178828095Y-147894523D01*
X178707142Y-147834047D01*
X178646666Y-147773571D01*
X178586190Y-147652619D01*
X178586190Y-147289761D01*
X178646666Y-147168809D01*
X178707142Y-147108333D01*
X178828095Y-147047857D01*
X179070000Y-147047857D01*
X179190952Y-147108333D01*
X179735238Y-147894523D02*
X179735238Y-146624523D01*
X180279523Y-147894523D02*
X180279523Y-147229285D01*
X180219047Y-147108333D01*
X180098095Y-147047857D01*
X179916666Y-147047857D01*
X179795714Y-147108333D01*
X179735238Y-147168809D01*
X180763333Y-147047857D02*
X181005238Y-147894523D01*
X181247142Y-147289761D01*
X181489047Y-147894523D01*
X181730952Y-147047857D01*
X182214761Y-147894523D02*
X182214761Y-147047857D01*
X182214761Y-147289761D02*
X182275238Y-147168809D01*
X182335714Y-147108333D01*
X182456666Y-147047857D01*
X182577619Y-147047857D01*
X183000952Y-147894523D02*
X183000952Y-146624523D01*
X183121904Y-147410714D02*
X183484761Y-147894523D01*
X183484761Y-147047857D02*
X183000952Y-147531666D01*
X183968571Y-147834047D02*
X184089523Y-147894523D01*
X184331428Y-147894523D01*
X184452380Y-147834047D01*
X184512857Y-147713095D01*
X184512857Y-147652619D01*
X184452380Y-147531666D01*
X184331428Y-147471190D01*
X184150000Y-147471190D01*
X184029047Y-147410714D01*
X183968571Y-147289761D01*
X183968571Y-147229285D01*
X184029047Y-147108333D01*
X184150000Y-147047857D01*
X184331428Y-147047857D01*
X184452380Y-147108333D01*
X185057142Y-147773571D02*
X185117619Y-147834047D01*
X185057142Y-147894523D01*
X184996666Y-147834047D01*
X185057142Y-147773571D01*
X185057142Y-147894523D01*
X186206190Y-147834047D02*
X186085238Y-147894523D01*
X185843333Y-147894523D01*
X185722380Y-147834047D01*
X185661904Y-147773571D01*
X185601428Y-147652619D01*
X185601428Y-147289761D01*
X185661904Y-147168809D01*
X185722380Y-147108333D01*
X185843333Y-147047857D01*
X186085238Y-147047857D01*
X186206190Y-147108333D01*
X186931904Y-147894523D02*
X186810952Y-147834047D01*
X186750476Y-147773571D01*
X186690000Y-147652619D01*
X186690000Y-147289761D01*
X186750476Y-147168809D01*
X186810952Y-147108333D01*
X186931904Y-147047857D01*
X187113333Y-147047857D01*
X187234285Y-147108333D01*
X187294761Y-147168809D01*
X187355238Y-147289761D01*
X187355238Y-147652619D01*
X187294761Y-147773571D01*
X187234285Y-147834047D01*
X187113333Y-147894523D01*
X186931904Y-147894523D01*
X187899523Y-147894523D02*
X187899523Y-147047857D01*
X187899523Y-147168809D02*
X187960000Y-147108333D01*
X188080952Y-147047857D01*
X188262380Y-147047857D01*
X188383333Y-147108333D01*
X188443809Y-147229285D01*
X188443809Y-147894523D01*
X188443809Y-147229285D02*
X188504285Y-147108333D01*
X188625238Y-147047857D01*
X188806666Y-147047857D01*
X188927619Y-147108333D01*
X188988095Y-147229285D01*
X188988095Y-147894523D01*
X139065000Y-146685000D02*
X138944047Y-146624523D01*
X138762619Y-146624523D01*
X138581190Y-146685000D01*
X138460238Y-146805952D01*
X138399761Y-146926904D01*
X138339285Y-147168809D01*
X138339285Y-147350238D01*
X138399761Y-147592142D01*
X138460238Y-147713095D01*
X138581190Y-147834047D01*
X138762619Y-147894523D01*
X138883571Y-147894523D01*
X139065000Y-147834047D01*
X139125476Y-147773571D01*
X139125476Y-147350238D01*
X138883571Y-147350238D01*
X139548809Y-146624523D02*
X139851190Y-147894523D01*
X140093095Y-146987380D01*
X140335000Y-147894523D01*
X140637380Y-146624523D01*
X141121190Y-147410714D02*
X142088809Y-147410714D01*
X143358809Y-146685000D02*
X143237857Y-146624523D01*
X143056428Y-146624523D01*
X142875000Y-146685000D01*
X142754047Y-146805952D01*
X142693571Y-146926904D01*
X142633095Y-147168809D01*
X142633095Y-147350238D01*
X142693571Y-147592142D01*
X142754047Y-147713095D01*
X142875000Y-147834047D01*
X143056428Y-147894523D01*
X143177380Y-147894523D01*
X143358809Y-147834047D01*
X143419285Y-147773571D01*
X143419285Y-147350238D01*
X143177380Y-147350238D01*
X144568333Y-147894523D02*
X143963571Y-147894523D01*
X143963571Y-146624523D01*
X144991666Y-147894523D02*
X144991666Y-146624523D01*
X145415000Y-146624523D02*
X146140714Y-146624523D01*
X145777857Y-147894523D02*
X145777857Y-146624523D01*
X147289761Y-147773571D02*
X147229285Y-147834047D01*
X147047857Y-147894523D01*
X146926904Y-147894523D01*
X146745476Y-147834047D01*
X146624523Y-147713095D01*
X146564047Y-147592142D01*
X146503571Y-147350238D01*
X146503571Y-147168809D01*
X146564047Y-146926904D01*
X146624523Y-146805952D01*
X146745476Y-146685000D01*
X146926904Y-146624523D01*
X147047857Y-146624523D01*
X147229285Y-146685000D01*
X147289761Y-146745476D01*
X147834047Y-147894523D02*
X147834047Y-146624523D01*
X147834047Y-147229285D02*
X148559761Y-147229285D01*
X148559761Y-147894523D02*
X148559761Y-146624523D01*
X149587857Y-147229285D02*
X149769285Y-147289761D01*
X149829761Y-147350238D01*
X149890238Y-147471190D01*
X149890238Y-147652619D01*
X149829761Y-147773571D01*
X149769285Y-147834047D01*
X149648333Y-147894523D01*
X149164523Y-147894523D01*
X149164523Y-146624523D01*
X149587857Y-146624523D01*
X149708809Y-146685000D01*
X149769285Y-146745476D01*
X149829761Y-146866428D01*
X149829761Y-146987380D01*
X149769285Y-147108333D01*
X149708809Y-147168809D01*
X149587857Y-147229285D01*
X149164523Y-147229285D01*
X150434523Y-146624523D02*
X150434523Y-147652619D01*
X150495000Y-147773571D01*
X150555476Y-147834047D01*
X150676428Y-147894523D01*
X150918333Y-147894523D01*
X151039285Y-147834047D01*
X151099761Y-147773571D01*
X151160238Y-147652619D01*
X151160238Y-146624523D01*
X151704523Y-147834047D02*
X151885952Y-147894523D01*
X152188333Y-147894523D01*
X152309285Y-147834047D01*
X152369761Y-147773571D01*
X152430238Y-147652619D01*
X152430238Y-147531666D01*
X152369761Y-147410714D01*
X152309285Y-147350238D01*
X152188333Y-147289761D01*
X151946428Y-147229285D01*
X151825476Y-147168809D01*
X151765000Y-147108333D01*
X151704523Y-146987380D01*
X151704523Y-146866428D01*
X151765000Y-146745476D01*
X151825476Y-146685000D01*
X151946428Y-146624523D01*
X152248809Y-146624523D01*
X152430238Y-146685000D01*
X152974523Y-147410714D02*
X153942142Y-147410714D01*
X154546904Y-147894523D02*
X154546904Y-146624523D01*
X155030714Y-146624523D01*
X155151666Y-146685000D01*
X155212142Y-146745476D01*
X155272619Y-146866428D01*
X155272619Y-147047857D01*
X155212142Y-147168809D01*
X155151666Y-147229285D01*
X155030714Y-147289761D01*
X154546904Y-147289761D01*
X156542619Y-147894523D02*
X156119285Y-147289761D01*
X155816904Y-147894523D02*
X155816904Y-146624523D01*
X156300714Y-146624523D01*
X156421666Y-146685000D01*
X156482142Y-146745476D01*
X156542619Y-146866428D01*
X156542619Y-147047857D01*
X156482142Y-147168809D01*
X156421666Y-147229285D01*
X156300714Y-147289761D01*
X155816904Y-147289761D01*
X157328809Y-146624523D02*
X157570714Y-146624523D01*
X157691666Y-146685000D01*
X157812619Y-146805952D01*
X157873095Y-147047857D01*
X157873095Y-147471190D01*
X157812619Y-147713095D01*
X157691666Y-147834047D01*
X157570714Y-147894523D01*
X157328809Y-147894523D01*
X157207857Y-147834047D01*
X157086904Y-147713095D01*
X157026428Y-147471190D01*
X157026428Y-147047857D01*
X157086904Y-146805952D01*
X157207857Y-146685000D01*
X157328809Y-146624523D01*
X158235952Y-146624523D02*
X158961666Y-146624523D01*
X158598809Y-147894523D02*
X158598809Y-146624523D01*
X159626904Y-146624523D02*
X159868809Y-146624523D01*
X159989761Y-146685000D01*
X160110714Y-146805952D01*
X160171190Y-147047857D01*
X160171190Y-147471190D01*
X160110714Y-147713095D01*
X159989761Y-147834047D01*
X159868809Y-147894523D01*
X159626904Y-147894523D01*
X159505952Y-147834047D01*
X159385000Y-147713095D01*
X159324523Y-147471190D01*
X159324523Y-147047857D01*
X159385000Y-146805952D01*
X159505952Y-146685000D01*
X159626904Y-146624523D01*
X160655000Y-146745476D02*
X160715476Y-146685000D01*
X160836428Y-146624523D01*
X161138809Y-146624523D01*
X161259761Y-146685000D01*
X161320238Y-146745476D01*
X161380714Y-146866428D01*
X161380714Y-146987380D01*
X161320238Y-147168809D01*
X160594523Y-147894523D01*
X161380714Y-147894523D01*
X185510714Y-130796090D02*
X185450238Y-130977519D01*
X185389761Y-131037995D01*
X185268809Y-131098471D01*
X185087380Y-131098471D01*
X184966428Y-131037995D01*
X184905952Y-130977519D01*
X184845476Y-130856566D01*
X184845476Y-130372757D01*
X186115476Y-130372757D01*
X186115476Y-130796090D01*
X186055000Y-130917042D01*
X185994523Y-130977519D01*
X185873571Y-131037995D01*
X185752619Y-131037995D01*
X185631666Y-130977519D01*
X185571190Y-130917042D01*
X185510714Y-130796090D01*
X185510714Y-130372757D01*
X184845476Y-131642757D02*
X186115476Y-131642757D01*
X186115476Y-131945138D01*
X186055000Y-132126566D01*
X185934047Y-132247519D01*
X185813095Y-132307995D01*
X185571190Y-132368471D01*
X185389761Y-132368471D01*
X185147857Y-132307995D01*
X185026904Y-132247519D01*
X184905952Y-132126566D01*
X184845476Y-131945138D01*
X184845476Y-131642757D01*
X186115476Y-132791804D02*
X186115476Y-133638471D01*
X184845476Y-133094185D01*
X182970714Y-130796090D02*
X182910238Y-130977519D01*
X182849761Y-131037995D01*
X182728809Y-131098471D01*
X182547380Y-131098471D01*
X182426428Y-131037995D01*
X182365952Y-130977519D01*
X182305476Y-130856566D01*
X182305476Y-130372757D01*
X183575476Y-130372757D01*
X183575476Y-130796090D01*
X183515000Y-130917042D01*
X183454523Y-130977519D01*
X183333571Y-131037995D01*
X183212619Y-131037995D01*
X183091666Y-130977519D01*
X183031190Y-130917042D01*
X182970714Y-130796090D01*
X182970714Y-130372757D01*
X182305476Y-131642757D02*
X183575476Y-131642757D01*
X183575476Y-131945138D01*
X183515000Y-132126566D01*
X183394047Y-132247519D01*
X183273095Y-132307995D01*
X183031190Y-132368471D01*
X182849761Y-132368471D01*
X182607857Y-132307995D01*
X182486904Y-132247519D01*
X182365952Y-132126566D01*
X182305476Y-131945138D01*
X182305476Y-131642757D01*
X183575476Y-133517519D02*
X183575476Y-132912757D01*
X182970714Y-132852280D01*
X183031190Y-132912757D01*
X183091666Y-133033709D01*
X183091666Y-133336090D01*
X183031190Y-133457042D01*
X182970714Y-133517519D01*
X182849761Y-133577995D01*
X182547380Y-133577995D01*
X182426428Y-133517519D01*
X182365952Y-133457042D01*
X182305476Y-133336090D01*
X182305476Y-133033709D01*
X182365952Y-132912757D01*
X182426428Y-132852280D01*
X180430714Y-130796090D02*
X180370238Y-130977519D01*
X180309761Y-131037995D01*
X180188809Y-131098471D01*
X180007380Y-131098471D01*
X179886428Y-131037995D01*
X179825952Y-130977519D01*
X179765476Y-130856566D01*
X179765476Y-130372757D01*
X181035476Y-130372757D01*
X181035476Y-130796090D01*
X180975000Y-130917042D01*
X180914523Y-130977519D01*
X180793571Y-131037995D01*
X180672619Y-131037995D01*
X180551666Y-130977519D01*
X180491190Y-130917042D01*
X180430714Y-130796090D01*
X180430714Y-130372757D01*
X179765476Y-131642757D02*
X181035476Y-131642757D01*
X181035476Y-131945138D01*
X180975000Y-132126566D01*
X180854047Y-132247519D01*
X180733095Y-132307995D01*
X180491190Y-132368471D01*
X180309761Y-132368471D01*
X180067857Y-132307995D01*
X179946904Y-132247519D01*
X179825952Y-132126566D01*
X179765476Y-131945138D01*
X179765476Y-131642757D01*
X181035476Y-132791804D02*
X181035476Y-133577995D01*
X180551666Y-133154661D01*
X180551666Y-133336090D01*
X180491190Y-133457042D01*
X180430714Y-133517519D01*
X180309761Y-133577995D01*
X180007380Y-133577995D01*
X179886428Y-133517519D01*
X179825952Y-133457042D01*
X179765476Y-133336090D01*
X179765476Y-132973233D01*
X179825952Y-132852280D01*
X179886428Y-132791804D01*
X177890714Y-130796090D02*
X177830238Y-130977519D01*
X177769761Y-131037995D01*
X177648809Y-131098471D01*
X177467380Y-131098471D01*
X177346428Y-131037995D01*
X177285952Y-130977519D01*
X177225476Y-130856566D01*
X177225476Y-130372757D01*
X178495476Y-130372757D01*
X178495476Y-130796090D01*
X178435000Y-130917042D01*
X178374523Y-130977519D01*
X178253571Y-131037995D01*
X178132619Y-131037995D01*
X178011666Y-130977519D01*
X177951190Y-130917042D01*
X177890714Y-130796090D01*
X177890714Y-130372757D01*
X177225476Y-131642757D02*
X178495476Y-131642757D01*
X178495476Y-131945138D01*
X178435000Y-132126566D01*
X178314047Y-132247519D01*
X178193095Y-132307995D01*
X177951190Y-132368471D01*
X177769761Y-132368471D01*
X177527857Y-132307995D01*
X177406904Y-132247519D01*
X177285952Y-132126566D01*
X177225476Y-131945138D01*
X177225476Y-131642757D01*
X177225476Y-133577995D02*
X177225476Y-132852280D01*
X177225476Y-133215138D02*
X178495476Y-133215138D01*
X178314047Y-133094185D01*
X178193095Y-132973233D01*
X178132619Y-132852280D01*
X175350714Y-127409423D02*
X175290238Y-127590852D01*
X175229761Y-127651328D01*
X175108809Y-127711804D01*
X174927380Y-127711804D01*
X174806428Y-127651328D01*
X174745952Y-127590852D01*
X174685476Y-127469900D01*
X174685476Y-126986090D01*
X175955476Y-126986090D01*
X175955476Y-127409423D01*
X175895000Y-127530376D01*
X175834523Y-127590852D01*
X175713571Y-127651328D01*
X175592619Y-127651328D01*
X175471666Y-127590852D01*
X175411190Y-127530376D01*
X175350714Y-127409423D01*
X175350714Y-126986090D01*
X174685476Y-128981804D02*
X175290238Y-128558471D01*
X174685476Y-128256090D02*
X175955476Y-128256090D01*
X175955476Y-128739900D01*
X175895000Y-128860852D01*
X175834523Y-128921328D01*
X175713571Y-128981804D01*
X175532142Y-128981804D01*
X175411190Y-128921328D01*
X175350714Y-128860852D01*
X175290238Y-128739900D01*
X175290238Y-128256090D01*
X175350714Y-129526090D02*
X175350714Y-129949423D01*
X174685476Y-130130852D02*
X174685476Y-129526090D01*
X175955476Y-129526090D01*
X175955476Y-130130852D01*
X175048333Y-130614661D02*
X175048333Y-131219423D01*
X174685476Y-130493709D02*
X175955476Y-130917042D01*
X174685476Y-131340376D01*
X174685476Y-131763709D02*
X175955476Y-131763709D01*
X175955476Y-132066090D01*
X175895000Y-132247519D01*
X175774047Y-132368471D01*
X175653095Y-132428947D01*
X175411190Y-132489423D01*
X175229761Y-132489423D01*
X174987857Y-132428947D01*
X174866904Y-132368471D01*
X174745952Y-132247519D01*
X174685476Y-132066090D01*
X174685476Y-131763709D01*
X175290238Y-133275614D02*
X174685476Y-133275614D01*
X175955476Y-132852280D02*
X175290238Y-133275614D01*
X175955476Y-133698947D01*
X173415476Y-129163233D02*
X173113095Y-129163233D01*
X173234047Y-128860852D02*
X173113095Y-129163233D01*
X173234047Y-129465614D01*
X172871190Y-128981804D02*
X173113095Y-129163233D01*
X172871190Y-129344661D01*
X172810714Y-130372757D02*
X172750238Y-130554185D01*
X172689761Y-130614661D01*
X172568809Y-130675138D01*
X172387380Y-130675138D01*
X172266428Y-130614661D01*
X172205952Y-130554185D01*
X172145476Y-130433233D01*
X172145476Y-129949423D01*
X173415476Y-129949423D01*
X173415476Y-130372757D01*
X173355000Y-130493709D01*
X173294523Y-130554185D01*
X173173571Y-130614661D01*
X173052619Y-130614661D01*
X172931666Y-130554185D01*
X172871190Y-130493709D01*
X172810714Y-130372757D01*
X172810714Y-129949423D01*
X172145476Y-131219423D02*
X173415476Y-131219423D01*
X172145476Y-131824185D02*
X173415476Y-131824185D01*
X172145476Y-132549900D01*
X173415476Y-132549900D01*
X173415476Y-132973233D02*
X173415476Y-133698947D01*
X172145476Y-133336090D02*
X173415476Y-133336090D01*
X165190714Y-127107042D02*
X165130238Y-127288471D01*
X165069761Y-127348947D01*
X164948809Y-127409423D01*
X164767380Y-127409423D01*
X164646428Y-127348947D01*
X164585952Y-127288471D01*
X164525476Y-127167519D01*
X164525476Y-126683709D01*
X165795476Y-126683709D01*
X165795476Y-127107042D01*
X165735000Y-127227995D01*
X165674523Y-127288471D01*
X165553571Y-127348947D01*
X165432619Y-127348947D01*
X165311666Y-127288471D01*
X165251190Y-127227995D01*
X165190714Y-127107042D01*
X165190714Y-126683709D01*
X164646428Y-128679423D02*
X164585952Y-128618947D01*
X164525476Y-128437519D01*
X164525476Y-128316566D01*
X164585952Y-128135138D01*
X164706904Y-128014185D01*
X164827857Y-127953709D01*
X165069761Y-127893233D01*
X165251190Y-127893233D01*
X165493095Y-127953709D01*
X165614047Y-128014185D01*
X165735000Y-128135138D01*
X165795476Y-128316566D01*
X165795476Y-128437519D01*
X165735000Y-128618947D01*
X165674523Y-128679423D01*
X164525476Y-129828471D02*
X164525476Y-129223709D01*
X165795476Y-129223709D01*
X165795476Y-130493709D02*
X165795476Y-130735614D01*
X165735000Y-130856566D01*
X165614047Y-130977519D01*
X165372142Y-131037995D01*
X164948809Y-131037995D01*
X164706904Y-130977519D01*
X164585952Y-130856566D01*
X164525476Y-130735614D01*
X164525476Y-130493709D01*
X164585952Y-130372757D01*
X164706904Y-130251804D01*
X164948809Y-130191328D01*
X165372142Y-130191328D01*
X165614047Y-130251804D01*
X165735000Y-130372757D01*
X165795476Y-130493709D01*
X164646428Y-132307995D02*
X164585952Y-132247519D01*
X164525476Y-132066090D01*
X164525476Y-131945138D01*
X164585952Y-131763709D01*
X164706904Y-131642757D01*
X164827857Y-131582280D01*
X165069761Y-131521804D01*
X165251190Y-131521804D01*
X165493095Y-131582280D01*
X165614047Y-131642757D01*
X165735000Y-131763709D01*
X165795476Y-131945138D01*
X165795476Y-132066090D01*
X165735000Y-132247519D01*
X165674523Y-132307995D01*
X164525476Y-132852280D02*
X165795476Y-132852280D01*
X164525476Y-133577995D02*
X165251190Y-133033709D01*
X165795476Y-133577995D02*
X165069761Y-132852280D01*
X160110714Y-129767995D02*
X160050238Y-129949423D01*
X159989761Y-130009900D01*
X159868809Y-130070376D01*
X159687380Y-130070376D01*
X159566428Y-130009900D01*
X159505952Y-129949423D01*
X159445476Y-129828471D01*
X159445476Y-129344661D01*
X160715476Y-129344661D01*
X160715476Y-129767995D01*
X160655000Y-129888947D01*
X160594523Y-129949423D01*
X160473571Y-130009900D01*
X160352619Y-130009900D01*
X160231666Y-129949423D01*
X160171190Y-129888947D01*
X160110714Y-129767995D01*
X160110714Y-129344661D01*
X159808333Y-130554185D02*
X159808333Y-131158947D01*
X159445476Y-130433233D02*
X160715476Y-130856566D01*
X159445476Y-131279900D01*
X159445476Y-132368471D02*
X159445476Y-131642757D01*
X159445476Y-132005614D02*
X160715476Y-132005614D01*
X160534047Y-131884661D01*
X160413095Y-131763709D01*
X160352619Y-131642757D01*
X160715476Y-133517519D02*
X160715476Y-132912757D01*
X160110714Y-132852280D01*
X160171190Y-132912757D01*
X160231666Y-133033709D01*
X160231666Y-133336090D01*
X160171190Y-133457042D01*
X160110714Y-133517519D01*
X159989761Y-133577995D01*
X159687380Y-133577995D01*
X159566428Y-133517519D01*
X159505952Y-133457042D01*
X159445476Y-133336090D01*
X159445476Y-133033709D01*
X159505952Y-132912757D01*
X159566428Y-132852280D01*
X157570714Y-129767995D02*
X157510238Y-129949423D01*
X157449761Y-130009900D01*
X157328809Y-130070376D01*
X157147380Y-130070376D01*
X157026428Y-130009900D01*
X156965952Y-129949423D01*
X156905476Y-129828471D01*
X156905476Y-129344661D01*
X158175476Y-129344661D01*
X158175476Y-129767995D01*
X158115000Y-129888947D01*
X158054523Y-129949423D01*
X157933571Y-130009900D01*
X157812619Y-130009900D01*
X157691666Y-129949423D01*
X157631190Y-129888947D01*
X157570714Y-129767995D01*
X157570714Y-129344661D01*
X157268333Y-130554185D02*
X157268333Y-131158947D01*
X156905476Y-130433233D02*
X158175476Y-130856566D01*
X156905476Y-131279900D01*
X156905476Y-132368471D02*
X156905476Y-131642757D01*
X156905476Y-132005614D02*
X158175476Y-132005614D01*
X157994047Y-131884661D01*
X157873095Y-131763709D01*
X157812619Y-131642757D01*
X158175476Y-132791804D02*
X158175476Y-133577995D01*
X157691666Y-133154661D01*
X157691666Y-133336090D01*
X157631190Y-133457042D01*
X157570714Y-133517519D01*
X157449761Y-133577995D01*
X157147380Y-133577995D01*
X157026428Y-133517519D01*
X156965952Y-133457042D01*
X156905476Y-133336090D01*
X156905476Y-132973233D01*
X156965952Y-132852280D01*
X157026428Y-132791804D01*
X155030714Y-129767995D02*
X154970238Y-129949423D01*
X154909761Y-130009900D01*
X154788809Y-130070376D01*
X154607380Y-130070376D01*
X154486428Y-130009900D01*
X154425952Y-129949423D01*
X154365476Y-129828471D01*
X154365476Y-129344661D01*
X155635476Y-129344661D01*
X155635476Y-129767995D01*
X155575000Y-129888947D01*
X155514523Y-129949423D01*
X155393571Y-130009900D01*
X155272619Y-130009900D01*
X155151666Y-129949423D01*
X155091190Y-129888947D01*
X155030714Y-129767995D01*
X155030714Y-129344661D01*
X154728333Y-130554185D02*
X154728333Y-131158947D01*
X154365476Y-130433233D02*
X155635476Y-130856566D01*
X154365476Y-131279900D01*
X154365476Y-132368471D02*
X154365476Y-131642757D01*
X154365476Y-132005614D02*
X155635476Y-132005614D01*
X155454047Y-131884661D01*
X155333095Y-131763709D01*
X155272619Y-131642757D01*
X154365476Y-133577995D02*
X154365476Y-132852280D01*
X154365476Y-133215138D02*
X155635476Y-133215138D01*
X155454047Y-133094185D01*
X155333095Y-132973233D01*
X155272619Y-132852280D01*
X152490714Y-130977519D02*
X152430238Y-131158947D01*
X152369761Y-131219423D01*
X152248809Y-131279900D01*
X152067380Y-131279900D01*
X151946428Y-131219423D01*
X151885952Y-131158947D01*
X151825476Y-131037995D01*
X151825476Y-130554185D01*
X153095476Y-130554185D01*
X153095476Y-130977519D01*
X153035000Y-131098471D01*
X152974523Y-131158947D01*
X152853571Y-131219423D01*
X152732619Y-131219423D01*
X152611666Y-131158947D01*
X152551190Y-131098471D01*
X152490714Y-130977519D01*
X152490714Y-130554185D01*
X152188333Y-131763709D02*
X152188333Y-132368471D01*
X151825476Y-131642757D02*
X153095476Y-132066090D01*
X151825476Y-132489423D01*
X151825476Y-132973233D02*
X151825476Y-133215138D01*
X151885952Y-133336090D01*
X151946428Y-133396566D01*
X152127857Y-133517519D01*
X152369761Y-133577995D01*
X152853571Y-133577995D01*
X152974523Y-133517519D01*
X153035000Y-133457042D01*
X153095476Y-133336090D01*
X153095476Y-133094185D01*
X153035000Y-132973233D01*
X152974523Y-132912757D01*
X152853571Y-132852280D01*
X152551190Y-132852280D01*
X152430238Y-132912757D01*
X152369761Y-132973233D01*
X152309285Y-133094185D01*
X152309285Y-133336090D01*
X152369761Y-133457042D01*
X152430238Y-133517519D01*
X152551190Y-133577995D01*
X149950714Y-130977519D02*
X149890238Y-131158947D01*
X149829761Y-131219423D01*
X149708809Y-131279900D01*
X149527380Y-131279900D01*
X149406428Y-131219423D01*
X149345952Y-131158947D01*
X149285476Y-131037995D01*
X149285476Y-130554185D01*
X150555476Y-130554185D01*
X150555476Y-130977519D01*
X150495000Y-131098471D01*
X150434523Y-131158947D01*
X150313571Y-131219423D01*
X150192619Y-131219423D01*
X150071666Y-131158947D01*
X150011190Y-131098471D01*
X149950714Y-130977519D01*
X149950714Y-130554185D01*
X149648333Y-131763709D02*
X149648333Y-132368471D01*
X149285476Y-131642757D02*
X150555476Y-132066090D01*
X149285476Y-132489423D01*
X150555476Y-132791804D02*
X150555476Y-133638471D01*
X149285476Y-133094185D01*
X147410714Y-130977519D02*
X147350238Y-131158947D01*
X147289761Y-131219423D01*
X147168809Y-131279900D01*
X146987380Y-131279900D01*
X146866428Y-131219423D01*
X146805952Y-131158947D01*
X146745476Y-131037995D01*
X146745476Y-130554185D01*
X148015476Y-130554185D01*
X148015476Y-130977519D01*
X147955000Y-131098471D01*
X147894523Y-131158947D01*
X147773571Y-131219423D01*
X147652619Y-131219423D01*
X147531666Y-131158947D01*
X147471190Y-131098471D01*
X147410714Y-130977519D01*
X147410714Y-130554185D01*
X147108333Y-131763709D02*
X147108333Y-132368471D01*
X146745476Y-131642757D02*
X148015476Y-132066090D01*
X146745476Y-132489423D01*
X148015476Y-133517519D02*
X148015476Y-132912757D01*
X147410714Y-132852280D01*
X147471190Y-132912757D01*
X147531666Y-133033709D01*
X147531666Y-133336090D01*
X147471190Y-133457042D01*
X147410714Y-133517519D01*
X147289761Y-133577995D01*
X146987380Y-133577995D01*
X146866428Y-133517519D01*
X146805952Y-133457042D01*
X146745476Y-133336090D01*
X146745476Y-133033709D01*
X146805952Y-132912757D01*
X146866428Y-132852280D01*
X144870714Y-130977519D02*
X144810238Y-131158947D01*
X144749761Y-131219423D01*
X144628809Y-131279900D01*
X144447380Y-131279900D01*
X144326428Y-131219423D01*
X144265952Y-131158947D01*
X144205476Y-131037995D01*
X144205476Y-130554185D01*
X145475476Y-130554185D01*
X145475476Y-130977519D01*
X145415000Y-131098471D01*
X145354523Y-131158947D01*
X145233571Y-131219423D01*
X145112619Y-131219423D01*
X144991666Y-131158947D01*
X144931190Y-131098471D01*
X144870714Y-130977519D01*
X144870714Y-130554185D01*
X144568333Y-131763709D02*
X144568333Y-132368471D01*
X144205476Y-131642757D02*
X145475476Y-132066090D01*
X144205476Y-132489423D01*
X145475476Y-132791804D02*
X145475476Y-133577995D01*
X144991666Y-133154661D01*
X144991666Y-133336090D01*
X144931190Y-133457042D01*
X144870714Y-133517519D01*
X144749761Y-133577995D01*
X144447380Y-133577995D01*
X144326428Y-133517519D01*
X144265952Y-133457042D01*
X144205476Y-133336090D01*
X144205476Y-132973233D01*
X144265952Y-132852280D01*
X144326428Y-132791804D01*
X142330714Y-130977519D02*
X142270238Y-131158947D01*
X142209761Y-131219423D01*
X142088809Y-131279900D01*
X141907380Y-131279900D01*
X141786428Y-131219423D01*
X141725952Y-131158947D01*
X141665476Y-131037995D01*
X141665476Y-130554185D01*
X142935476Y-130554185D01*
X142935476Y-130977519D01*
X142875000Y-131098471D01*
X142814523Y-131158947D01*
X142693571Y-131219423D01*
X142572619Y-131219423D01*
X142451666Y-131158947D01*
X142391190Y-131098471D01*
X142330714Y-130977519D01*
X142330714Y-130554185D01*
X142028333Y-131763709D02*
X142028333Y-132368471D01*
X141665476Y-131642757D02*
X142935476Y-132066090D01*
X141665476Y-132489423D01*
X141665476Y-133577995D02*
X141665476Y-132852280D01*
X141665476Y-133215138D02*
X142935476Y-133215138D01*
X142754047Y-133094185D01*
X142633095Y-132973233D01*
X142572619Y-132852280D01*
X185510714Y-141225814D02*
X185450238Y-141407242D01*
X185389761Y-141467719D01*
X185268809Y-141528195D01*
X185087380Y-141528195D01*
X184966428Y-141467719D01*
X184905952Y-141407242D01*
X184845476Y-141286290D01*
X184845476Y-140802480D01*
X186115476Y-140802480D01*
X186115476Y-141225814D01*
X186055000Y-141346766D01*
X185994523Y-141407242D01*
X185873571Y-141467719D01*
X185752619Y-141467719D01*
X185631666Y-141407242D01*
X185571190Y-141346766D01*
X185510714Y-141225814D01*
X185510714Y-140802480D01*
X184845476Y-142072480D02*
X186115476Y-142072480D01*
X186115476Y-142374861D01*
X186055000Y-142556290D01*
X185934047Y-142677242D01*
X185813095Y-142737719D01*
X185571190Y-142798195D01*
X185389761Y-142798195D01*
X185147857Y-142737719D01*
X185026904Y-142677242D01*
X184905952Y-142556290D01*
X184845476Y-142374861D01*
X184845476Y-142072480D01*
X186115476Y-143886766D02*
X186115476Y-143644861D01*
X186055000Y-143523909D01*
X185994523Y-143463433D01*
X185813095Y-143342480D01*
X185571190Y-143282004D01*
X185087380Y-143282004D01*
X184966428Y-143342480D01*
X184905952Y-143402957D01*
X184845476Y-143523909D01*
X184845476Y-143765814D01*
X184905952Y-143886766D01*
X184966428Y-143947242D01*
X185087380Y-144007719D01*
X185389761Y-144007719D01*
X185510714Y-143947242D01*
X185571190Y-143886766D01*
X185631666Y-143765814D01*
X185631666Y-143523909D01*
X185571190Y-143402957D01*
X185510714Y-143342480D01*
X185389761Y-143282004D01*
X182970714Y-141225814D02*
X182910238Y-141407242D01*
X182849761Y-141467719D01*
X182728809Y-141528195D01*
X182547380Y-141528195D01*
X182426428Y-141467719D01*
X182365952Y-141407242D01*
X182305476Y-141286290D01*
X182305476Y-140802480D01*
X183575476Y-140802480D01*
X183575476Y-141225814D01*
X183515000Y-141346766D01*
X183454523Y-141407242D01*
X183333571Y-141467719D01*
X183212619Y-141467719D01*
X183091666Y-141407242D01*
X183031190Y-141346766D01*
X182970714Y-141225814D01*
X182970714Y-140802480D01*
X182305476Y-142072480D02*
X183575476Y-142072480D01*
X183575476Y-142374861D01*
X183515000Y-142556290D01*
X183394047Y-142677242D01*
X183273095Y-142737719D01*
X183031190Y-142798195D01*
X182849761Y-142798195D01*
X182607857Y-142737719D01*
X182486904Y-142677242D01*
X182365952Y-142556290D01*
X182305476Y-142374861D01*
X182305476Y-142072480D01*
X183152142Y-143886766D02*
X182305476Y-143886766D01*
X183635952Y-143584385D02*
X182728809Y-143282004D01*
X182728809Y-144068195D01*
X180430714Y-141225814D02*
X180370238Y-141407242D01*
X180309761Y-141467719D01*
X180188809Y-141528195D01*
X180007380Y-141528195D01*
X179886428Y-141467719D01*
X179825952Y-141407242D01*
X179765476Y-141286290D01*
X179765476Y-140802480D01*
X181035476Y-140802480D01*
X181035476Y-141225814D01*
X180975000Y-141346766D01*
X180914523Y-141407242D01*
X180793571Y-141467719D01*
X180672619Y-141467719D01*
X180551666Y-141407242D01*
X180491190Y-141346766D01*
X180430714Y-141225814D01*
X180430714Y-140802480D01*
X179765476Y-142072480D02*
X181035476Y-142072480D01*
X181035476Y-142374861D01*
X180975000Y-142556290D01*
X180854047Y-142677242D01*
X180733095Y-142737719D01*
X180491190Y-142798195D01*
X180309761Y-142798195D01*
X180067857Y-142737719D01*
X179946904Y-142677242D01*
X179825952Y-142556290D01*
X179765476Y-142374861D01*
X179765476Y-142072480D01*
X180914523Y-143282004D02*
X180975000Y-143342480D01*
X181035476Y-143463433D01*
X181035476Y-143765814D01*
X180975000Y-143886766D01*
X180914523Y-143947242D01*
X180793571Y-144007719D01*
X180672619Y-144007719D01*
X180491190Y-143947242D01*
X179765476Y-143221528D01*
X179765476Y-144007719D01*
X177890714Y-141225814D02*
X177830238Y-141407242D01*
X177769761Y-141467719D01*
X177648809Y-141528195D01*
X177467380Y-141528195D01*
X177346428Y-141467719D01*
X177285952Y-141407242D01*
X177225476Y-141286290D01*
X177225476Y-140802480D01*
X178495476Y-140802480D01*
X178495476Y-141225814D01*
X178435000Y-141346766D01*
X178374523Y-141407242D01*
X178253571Y-141467719D01*
X178132619Y-141467719D01*
X178011666Y-141407242D01*
X177951190Y-141346766D01*
X177890714Y-141225814D01*
X177890714Y-140802480D01*
X177225476Y-142072480D02*
X178495476Y-142072480D01*
X178495476Y-142374861D01*
X178435000Y-142556290D01*
X178314047Y-142677242D01*
X178193095Y-142737719D01*
X177951190Y-142798195D01*
X177769761Y-142798195D01*
X177527857Y-142737719D01*
X177406904Y-142677242D01*
X177285952Y-142556290D01*
X177225476Y-142374861D01*
X177225476Y-142072480D01*
X178495476Y-143584385D02*
X178495476Y-143705338D01*
X178435000Y-143826290D01*
X178374523Y-143886766D01*
X178253571Y-143947242D01*
X178011666Y-144007719D01*
X177709285Y-144007719D01*
X177467380Y-143947242D01*
X177346428Y-143886766D01*
X177285952Y-143826290D01*
X177225476Y-143705338D01*
X177225476Y-143584385D01*
X177285952Y-143463433D01*
X177346428Y-143402957D01*
X177467380Y-143342480D01*
X177709285Y-143282004D01*
X178011666Y-143282004D01*
X178253571Y-143342480D01*
X178374523Y-143402957D01*
X178435000Y-143463433D01*
X178495476Y-143584385D01*
X172810714Y-141225814D02*
X172750238Y-141407242D01*
X172689761Y-141467719D01*
X172568809Y-141528195D01*
X172387380Y-141528195D01*
X172266428Y-141467719D01*
X172205952Y-141407242D01*
X172145476Y-141286290D01*
X172145476Y-140802480D01*
X173415476Y-140802480D01*
X173415476Y-141225814D01*
X173355000Y-141346766D01*
X173294523Y-141407242D01*
X173173571Y-141467719D01*
X173052619Y-141467719D01*
X172931666Y-141407242D01*
X172871190Y-141346766D01*
X172810714Y-141225814D01*
X172810714Y-140802480D01*
X172145476Y-142798195D02*
X172750238Y-142374861D01*
X172145476Y-142072480D02*
X173415476Y-142072480D01*
X173415476Y-142556290D01*
X173355000Y-142677242D01*
X173294523Y-142737719D01*
X173173571Y-142798195D01*
X172992142Y-142798195D01*
X172871190Y-142737719D01*
X172810714Y-142677242D01*
X172750238Y-142556290D01*
X172750238Y-142072480D01*
X173415476Y-143523909D02*
X173113095Y-143523909D01*
X173234047Y-143221528D02*
X173113095Y-143523909D01*
X173234047Y-143826290D01*
X172871190Y-143342480D02*
X173113095Y-143523909D01*
X172871190Y-143705338D01*
X173415476Y-144491528D02*
X173113095Y-144491528D01*
X173234047Y-144189147D02*
X173113095Y-144491528D01*
X173234047Y-144793909D01*
X172871190Y-144310100D02*
X173113095Y-144491528D01*
X172871190Y-144672957D01*
X173415476Y-145156766D02*
X172145476Y-145459147D01*
X173052619Y-145701052D01*
X172145476Y-145942957D01*
X173415476Y-146245338D01*
X168335476Y-140983909D02*
X168033095Y-140983909D01*
X168154047Y-140681528D02*
X168033095Y-140983909D01*
X168154047Y-141286290D01*
X167791190Y-140802480D02*
X168033095Y-140983909D01*
X167791190Y-141165338D01*
X167730714Y-142193433D02*
X167670238Y-142374861D01*
X167609761Y-142435338D01*
X167488809Y-142495814D01*
X167307380Y-142495814D01*
X167186428Y-142435338D01*
X167125952Y-142374861D01*
X167065476Y-142253909D01*
X167065476Y-141770100D01*
X168335476Y-141770100D01*
X168335476Y-142193433D01*
X168275000Y-142314385D01*
X168214523Y-142374861D01*
X168093571Y-142435338D01*
X167972619Y-142435338D01*
X167851666Y-142374861D01*
X167791190Y-142314385D01*
X167730714Y-142193433D01*
X167730714Y-141770100D01*
X167125952Y-142979623D02*
X167065476Y-143161052D01*
X167065476Y-143463433D01*
X167125952Y-143584385D01*
X167186428Y-143644861D01*
X167307380Y-143705338D01*
X167428333Y-143705338D01*
X167549285Y-143644861D01*
X167609761Y-143584385D01*
X167670238Y-143463433D01*
X167730714Y-143221528D01*
X167791190Y-143100576D01*
X167851666Y-143040100D01*
X167972619Y-142979623D01*
X168093571Y-142979623D01*
X168214523Y-143040100D01*
X168275000Y-143100576D01*
X168335476Y-143221528D01*
X168335476Y-143523909D01*
X168275000Y-143705338D01*
X168335476Y-144068195D02*
X168335476Y-144793909D01*
X167065476Y-144431052D02*
X168335476Y-144431052D01*
X167428333Y-145156766D02*
X167428333Y-145761528D01*
X167065476Y-145035814D02*
X168335476Y-145459147D01*
X167065476Y-145882480D01*
X167065476Y-147031528D02*
X167670238Y-146608195D01*
X167065476Y-146305814D02*
X168335476Y-146305814D01*
X168335476Y-146789623D01*
X168275000Y-146910576D01*
X168214523Y-146971052D01*
X168093571Y-147031528D01*
X167912142Y-147031528D01*
X167791190Y-146971052D01*
X167730714Y-146910576D01*
X167670238Y-146789623D01*
X167670238Y-146305814D01*
X168335476Y-147394385D02*
X168335476Y-148120100D01*
X167065476Y-147757242D02*
X168335476Y-147757242D01*
X160110714Y-141225814D02*
X160050238Y-141407242D01*
X159989761Y-141467719D01*
X159868809Y-141528195D01*
X159687380Y-141528195D01*
X159566428Y-141467719D01*
X159505952Y-141407242D01*
X159445476Y-141286290D01*
X159445476Y-140802480D01*
X160715476Y-140802480D01*
X160715476Y-141225814D01*
X160655000Y-141346766D01*
X160594523Y-141407242D01*
X160473571Y-141467719D01*
X160352619Y-141467719D01*
X160231666Y-141407242D01*
X160171190Y-141346766D01*
X160110714Y-141225814D01*
X160110714Y-140802480D01*
X159808333Y-142012004D02*
X159808333Y-142616766D01*
X159445476Y-141891052D02*
X160715476Y-142314385D01*
X159445476Y-142737719D01*
X159445476Y-143826290D02*
X159445476Y-143100576D01*
X159445476Y-143463433D02*
X160715476Y-143463433D01*
X160534047Y-143342480D01*
X160413095Y-143221528D01*
X160352619Y-143100576D01*
X160292142Y-144914861D02*
X159445476Y-144914861D01*
X160775952Y-144612480D02*
X159868809Y-144310100D01*
X159868809Y-145096290D01*
X157570714Y-141225814D02*
X157510238Y-141407242D01*
X157449761Y-141467719D01*
X157328809Y-141528195D01*
X157147380Y-141528195D01*
X157026428Y-141467719D01*
X156965952Y-141407242D01*
X156905476Y-141286290D01*
X156905476Y-140802480D01*
X158175476Y-140802480D01*
X158175476Y-141225814D01*
X158115000Y-141346766D01*
X158054523Y-141407242D01*
X157933571Y-141467719D01*
X157812619Y-141467719D01*
X157691666Y-141407242D01*
X157631190Y-141346766D01*
X157570714Y-141225814D01*
X157570714Y-140802480D01*
X157268333Y-142012004D02*
X157268333Y-142616766D01*
X156905476Y-141891052D02*
X158175476Y-142314385D01*
X156905476Y-142737719D01*
X156905476Y-143826290D02*
X156905476Y-143100576D01*
X156905476Y-143463433D02*
X158175476Y-143463433D01*
X157994047Y-143342480D01*
X157873095Y-143221528D01*
X157812619Y-143100576D01*
X158054523Y-144310100D02*
X158115000Y-144370576D01*
X158175476Y-144491528D01*
X158175476Y-144793909D01*
X158115000Y-144914861D01*
X158054523Y-144975338D01*
X157933571Y-145035814D01*
X157812619Y-145035814D01*
X157631190Y-144975338D01*
X156905476Y-144249623D01*
X156905476Y-145035814D01*
X155030714Y-141225814D02*
X154970238Y-141407242D01*
X154909761Y-141467719D01*
X154788809Y-141528195D01*
X154607380Y-141528195D01*
X154486428Y-141467719D01*
X154425952Y-141407242D01*
X154365476Y-141286290D01*
X154365476Y-140802480D01*
X155635476Y-140802480D01*
X155635476Y-141225814D01*
X155575000Y-141346766D01*
X155514523Y-141407242D01*
X155393571Y-141467719D01*
X155272619Y-141467719D01*
X155151666Y-141407242D01*
X155091190Y-141346766D01*
X155030714Y-141225814D01*
X155030714Y-140802480D01*
X154728333Y-142012004D02*
X154728333Y-142616766D01*
X154365476Y-141891052D02*
X155635476Y-142314385D01*
X154365476Y-142737719D01*
X154365476Y-143826290D02*
X154365476Y-143100576D01*
X154365476Y-143463433D02*
X155635476Y-143463433D01*
X155454047Y-143342480D01*
X155333095Y-143221528D01*
X155272619Y-143100576D01*
X155635476Y-144612480D02*
X155635476Y-144733433D01*
X155575000Y-144854385D01*
X155514523Y-144914861D01*
X155393571Y-144975338D01*
X155151666Y-145035814D01*
X154849285Y-145035814D01*
X154607380Y-144975338D01*
X154486428Y-144914861D01*
X154425952Y-144854385D01*
X154365476Y-144733433D01*
X154365476Y-144612480D01*
X154425952Y-144491528D01*
X154486428Y-144431052D01*
X154607380Y-144370576D01*
X154849285Y-144310100D01*
X155151666Y-144310100D01*
X155393571Y-144370576D01*
X155514523Y-144431052D01*
X155575000Y-144491528D01*
X155635476Y-144612480D01*
X152490714Y-141225814D02*
X152430238Y-141407242D01*
X152369761Y-141467719D01*
X152248809Y-141528195D01*
X152067380Y-141528195D01*
X151946428Y-141467719D01*
X151885952Y-141407242D01*
X151825476Y-141286290D01*
X151825476Y-140802480D01*
X153095476Y-140802480D01*
X153095476Y-141225814D01*
X153035000Y-141346766D01*
X152974523Y-141407242D01*
X152853571Y-141467719D01*
X152732619Y-141467719D01*
X152611666Y-141407242D01*
X152551190Y-141346766D01*
X152490714Y-141225814D01*
X152490714Y-140802480D01*
X152188333Y-142012004D02*
X152188333Y-142616766D01*
X151825476Y-141891052D02*
X153095476Y-142314385D01*
X151825476Y-142737719D01*
X152551190Y-143342480D02*
X152611666Y-143221528D01*
X152672142Y-143161052D01*
X152793095Y-143100576D01*
X152853571Y-143100576D01*
X152974523Y-143161052D01*
X153035000Y-143221528D01*
X153095476Y-143342480D01*
X153095476Y-143584385D01*
X153035000Y-143705338D01*
X152974523Y-143765814D01*
X152853571Y-143826290D01*
X152793095Y-143826290D01*
X152672142Y-143765814D01*
X152611666Y-143705338D01*
X152551190Y-143584385D01*
X152551190Y-143342480D01*
X152490714Y-143221528D01*
X152430238Y-143161052D01*
X152309285Y-143100576D01*
X152067380Y-143100576D01*
X151946428Y-143161052D01*
X151885952Y-143221528D01*
X151825476Y-143342480D01*
X151825476Y-143584385D01*
X151885952Y-143705338D01*
X151946428Y-143765814D01*
X152067380Y-143826290D01*
X152309285Y-143826290D01*
X152430238Y-143765814D01*
X152490714Y-143705338D01*
X152551190Y-143584385D01*
X149950714Y-141225814D02*
X149890238Y-141407242D01*
X149829761Y-141467719D01*
X149708809Y-141528195D01*
X149527380Y-141528195D01*
X149406428Y-141467719D01*
X149345952Y-141407242D01*
X149285476Y-141286290D01*
X149285476Y-140802480D01*
X150555476Y-140802480D01*
X150555476Y-141225814D01*
X150495000Y-141346766D01*
X150434523Y-141407242D01*
X150313571Y-141467719D01*
X150192619Y-141467719D01*
X150071666Y-141407242D01*
X150011190Y-141346766D01*
X149950714Y-141225814D01*
X149950714Y-140802480D01*
X149648333Y-142012004D02*
X149648333Y-142616766D01*
X149285476Y-141891052D02*
X150555476Y-142314385D01*
X149285476Y-142737719D01*
X150555476Y-143705338D02*
X150555476Y-143463433D01*
X150495000Y-143342480D01*
X150434523Y-143282004D01*
X150253095Y-143161052D01*
X150011190Y-143100576D01*
X149527380Y-143100576D01*
X149406428Y-143161052D01*
X149345952Y-143221528D01*
X149285476Y-143342480D01*
X149285476Y-143584385D01*
X149345952Y-143705338D01*
X149406428Y-143765814D01*
X149527380Y-143826290D01*
X149829761Y-143826290D01*
X149950714Y-143765814D01*
X150011190Y-143705338D01*
X150071666Y-143584385D01*
X150071666Y-143342480D01*
X150011190Y-143221528D01*
X149950714Y-143161052D01*
X149829761Y-143100576D01*
X147410714Y-141225814D02*
X147350238Y-141407242D01*
X147289761Y-141467719D01*
X147168809Y-141528195D01*
X146987380Y-141528195D01*
X146866428Y-141467719D01*
X146805952Y-141407242D01*
X146745476Y-141286290D01*
X146745476Y-140802480D01*
X148015476Y-140802480D01*
X148015476Y-141225814D01*
X147955000Y-141346766D01*
X147894523Y-141407242D01*
X147773571Y-141467719D01*
X147652619Y-141467719D01*
X147531666Y-141407242D01*
X147471190Y-141346766D01*
X147410714Y-141225814D01*
X147410714Y-140802480D01*
X147108333Y-142012004D02*
X147108333Y-142616766D01*
X146745476Y-141891052D02*
X148015476Y-142314385D01*
X146745476Y-142737719D01*
X147592142Y-143705338D02*
X146745476Y-143705338D01*
X148075952Y-143402957D02*
X147168809Y-143100576D01*
X147168809Y-143886766D01*
X144870714Y-141225814D02*
X144810238Y-141407242D01*
X144749761Y-141467719D01*
X144628809Y-141528195D01*
X144447380Y-141528195D01*
X144326428Y-141467719D01*
X144265952Y-141407242D01*
X144205476Y-141286290D01*
X144205476Y-140802480D01*
X145475476Y-140802480D01*
X145475476Y-141225814D01*
X145415000Y-141346766D01*
X145354523Y-141407242D01*
X145233571Y-141467719D01*
X145112619Y-141467719D01*
X144991666Y-141407242D01*
X144931190Y-141346766D01*
X144870714Y-141225814D01*
X144870714Y-140802480D01*
X144568333Y-142012004D02*
X144568333Y-142616766D01*
X144205476Y-141891052D02*
X145475476Y-142314385D01*
X144205476Y-142737719D01*
X145354523Y-143100576D02*
X145415000Y-143161052D01*
X145475476Y-143282004D01*
X145475476Y-143584385D01*
X145415000Y-143705338D01*
X145354523Y-143765814D01*
X145233571Y-143826290D01*
X145112619Y-143826290D01*
X144931190Y-143765814D01*
X144205476Y-143040100D01*
X144205476Y-143826290D01*
X170875476Y-126320852D02*
X170573095Y-126320852D01*
X170694047Y-126018471D02*
X170573095Y-126320852D01*
X170694047Y-126623233D01*
X170331190Y-126139423D02*
X170573095Y-126320852D01*
X170331190Y-126502280D01*
X170270714Y-127530376D02*
X170210238Y-127711804D01*
X170149761Y-127772280D01*
X170028809Y-127832757D01*
X169847380Y-127832757D01*
X169726428Y-127772280D01*
X169665952Y-127711804D01*
X169605476Y-127590852D01*
X169605476Y-127107042D01*
X170875476Y-127107042D01*
X170875476Y-127530376D01*
X170815000Y-127651328D01*
X170754523Y-127711804D01*
X170633571Y-127772280D01*
X170512619Y-127772280D01*
X170391666Y-127711804D01*
X170331190Y-127651328D01*
X170270714Y-127530376D01*
X170270714Y-127107042D01*
X169605476Y-129102757D02*
X170210238Y-128679423D01*
X169605476Y-128377042D02*
X170875476Y-128377042D01*
X170875476Y-128860852D01*
X170815000Y-128981804D01*
X170754523Y-129042280D01*
X170633571Y-129102757D01*
X170452142Y-129102757D01*
X170331190Y-129042280D01*
X170270714Y-128981804D01*
X170210238Y-128860852D01*
X170210238Y-128377042D01*
X170270714Y-129647042D02*
X170270714Y-130070376D01*
X169605476Y-130251804D02*
X169605476Y-129647042D01*
X170875476Y-129647042D01*
X170875476Y-130251804D01*
X169665952Y-130735614D02*
X169605476Y-130917042D01*
X169605476Y-131219423D01*
X169665952Y-131340376D01*
X169726428Y-131400852D01*
X169847380Y-131461328D01*
X169968333Y-131461328D01*
X170089285Y-131400852D01*
X170149761Y-131340376D01*
X170210238Y-131219423D01*
X170270714Y-130977519D01*
X170331190Y-130856566D01*
X170391666Y-130796090D01*
X170512619Y-130735614D01*
X170633571Y-130735614D01*
X170754523Y-130796090D01*
X170815000Y-130856566D01*
X170875476Y-130977519D01*
X170875476Y-131279900D01*
X170815000Y-131461328D01*
X170270714Y-132005614D02*
X170270714Y-132428947D01*
X169605476Y-132610376D02*
X169605476Y-132005614D01*
X170875476Y-132005614D01*
X170875476Y-132610376D01*
X170875476Y-132973233D02*
X170875476Y-133698947D01*
X169605476Y-133336090D02*
X170875476Y-133336090D01*
X170875476Y-140983909D02*
X170573095Y-140983909D01*
X170694047Y-140681528D02*
X170573095Y-140983909D01*
X170694047Y-141286290D01*
X170331190Y-140802480D02*
X170573095Y-140983909D01*
X170331190Y-141165338D01*
X170270714Y-142193433D02*
X170210238Y-142374861D01*
X170149761Y-142435338D01*
X170028809Y-142495814D01*
X169847380Y-142495814D01*
X169726428Y-142435338D01*
X169665952Y-142374861D01*
X169605476Y-142253909D01*
X169605476Y-141770100D01*
X170875476Y-141770100D01*
X170875476Y-142193433D01*
X170815000Y-142314385D01*
X170754523Y-142374861D01*
X170633571Y-142435338D01*
X170512619Y-142435338D01*
X170391666Y-142374861D01*
X170331190Y-142314385D01*
X170270714Y-142193433D01*
X170270714Y-141770100D01*
X169605476Y-143040100D02*
X170875476Y-143040100D01*
X170875476Y-143886766D02*
X170875476Y-144128671D01*
X170815000Y-144249623D01*
X170694047Y-144370576D01*
X170452142Y-144431052D01*
X170028809Y-144431052D01*
X169786904Y-144370576D01*
X169665952Y-144249623D01*
X169605476Y-144128671D01*
X169605476Y-143886766D01*
X169665952Y-143765814D01*
X169786904Y-143644861D01*
X170028809Y-143584385D01*
X170452142Y-143584385D01*
X170694047Y-143644861D01*
X170815000Y-143765814D01*
X170875476Y-143886766D01*
X170875476Y-145156766D02*
X170573095Y-145156766D01*
X170694047Y-144854385D02*
X170573095Y-145156766D01*
X170694047Y-145459147D01*
X170331190Y-144975338D02*
X170573095Y-145156766D01*
X170331190Y-145338195D01*
X170875476Y-146124385D02*
X170573095Y-146124385D01*
X170694047Y-145822004D02*
X170573095Y-146124385D01*
X170694047Y-146426766D01*
X170331190Y-145942957D02*
X170573095Y-146124385D01*
X170331190Y-146305814D01*
X169605476Y-146910576D02*
X170875476Y-146910576D01*
X169968333Y-147333909D01*
X170875476Y-147757242D01*
X169605476Y-147757242D01*
X165795476Y-140983909D02*
X165493095Y-140983909D01*
X165614047Y-140681528D02*
X165493095Y-140983909D01*
X165614047Y-141286290D01*
X165251190Y-140802480D02*
X165493095Y-140983909D01*
X165251190Y-141165338D01*
X165190714Y-142193433D02*
X165130238Y-142374861D01*
X165069761Y-142435338D01*
X164948809Y-142495814D01*
X164767380Y-142495814D01*
X164646428Y-142435338D01*
X164585952Y-142374861D01*
X164525476Y-142253909D01*
X164525476Y-141770100D01*
X165795476Y-141770100D01*
X165795476Y-142193433D01*
X165735000Y-142314385D01*
X165674523Y-142374861D01*
X165553571Y-142435338D01*
X165432619Y-142435338D01*
X165311666Y-142374861D01*
X165251190Y-142314385D01*
X165190714Y-142193433D01*
X165190714Y-141770100D01*
X164525476Y-143040100D02*
X165795476Y-143040100D01*
X164888333Y-143463433D01*
X165795476Y-143886766D01*
X164525476Y-143886766D01*
X164888333Y-144431052D02*
X164888333Y-145035814D01*
X164525476Y-144310100D02*
X165795476Y-144733433D01*
X164525476Y-145156766D01*
X164585952Y-145519623D02*
X164525476Y-145701052D01*
X164525476Y-146003433D01*
X164585952Y-146124385D01*
X164646428Y-146184861D01*
X164767380Y-146245338D01*
X164888333Y-146245338D01*
X165009285Y-146184861D01*
X165069761Y-146124385D01*
X165130238Y-146003433D01*
X165190714Y-145761528D01*
X165251190Y-145640576D01*
X165311666Y-145580100D01*
X165432619Y-145519623D01*
X165553571Y-145519623D01*
X165674523Y-145580100D01*
X165735000Y-145640576D01*
X165795476Y-145761528D01*
X165795476Y-146063909D01*
X165735000Y-146245338D01*
X164525476Y-146789623D02*
X165795476Y-146789623D01*
X164525476Y-147515338D02*
X165251190Y-146971052D01*
X165795476Y-147515338D02*
X165069761Y-146789623D01*
X142330714Y-141225814D02*
X142270238Y-141407242D01*
X142209761Y-141467719D01*
X142088809Y-141528195D01*
X141907380Y-141528195D01*
X141786428Y-141467719D01*
X141725952Y-141407242D01*
X141665476Y-141286290D01*
X141665476Y-140802480D01*
X142935476Y-140802480D01*
X142935476Y-141225814D01*
X142875000Y-141346766D01*
X142814523Y-141407242D01*
X142693571Y-141467719D01*
X142572619Y-141467719D01*
X142451666Y-141407242D01*
X142391190Y-141346766D01*
X142330714Y-141225814D01*
X142330714Y-140802480D01*
X142028333Y-142012004D02*
X142028333Y-142616766D01*
X141665476Y-141891052D02*
X142935476Y-142314385D01*
X141665476Y-142737719D01*
X142935476Y-143402957D02*
X142935476Y-143523909D01*
X142875000Y-143644861D01*
X142814523Y-143705338D01*
X142693571Y-143765814D01*
X142451666Y-143826290D01*
X142149285Y-143826290D01*
X141907380Y-143765814D01*
X141786428Y-143705338D01*
X141725952Y-143644861D01*
X141665476Y-143523909D01*
X141665476Y-143402957D01*
X141725952Y-143282004D01*
X141786428Y-143221528D01*
X141907380Y-143161052D01*
X142149285Y-143100576D01*
X142451666Y-143100576D01*
X142693571Y-143161052D01*
X142814523Y-143221528D01*
X142875000Y-143282004D01*
X142935476Y-143402957D01*
X189230000Y-134620000D02*
X138430000Y-134620000D01*
X138430000Y-139700000D02*
X189230000Y-139700000D01*
X189230000Y-134620000D02*
X189230000Y-139700000D01*
X138430000Y-139700000D02*
X138430000Y-134620000D01*
X138430000Y-153670000D02*
X138430000Y-148590000D01*
X189230000Y-148590000D02*
X189230000Y-153670000D01*
X138430000Y-153670000D02*
X189230000Y-153670000D01*
X189230000Y-148590000D02*
X138430000Y-148590000D01*
X133350000Y-153670000D02*
X133350000Y-148590000D01*
X133350000Y-148590000D02*
X120650000Y-148590000D01*
X120650000Y-148590000D02*
X120650000Y-153670000D01*
X120650000Y-153670000D02*
X133350000Y-153670000D01*
X119380000Y-151130000D02*
X120650000Y-151130000D01*
X134620000Y-151130000D02*
X133350000Y-151130000D01*
X130477380Y-151311428D02*
X132412619Y-151311428D01*
X131445000Y-152279047D02*
X131445000Y-150343809D01*
M02*
